%TF.GenerationSoftware,KiCad,Pcbnew,8.0.5*%
%TF.CreationDate,2024-11-07T20:07:23-06:00*%
%TF.ProjectId,LEDDashboard,4c454444-6173-4686-926f-6172642e6b69,rev?*%
%TF.SameCoordinates,Original*%
%TF.FileFunction,Soldermask,Top*%
%TF.FilePolarity,Negative*%
%FSLAX46Y46*%
G04 Gerber Fmt 4.6, Leading zero omitted, Abs format (unit mm)*
G04 Created by KiCad (PCBNEW 8.0.5) date 2024-11-07 20:07:23*
%MOMM*%
%LPD*%
G01*
G04 APERTURE LIST*
G04 Aperture macros list*
%AMRoundRect*
0 Rectangle with rounded corners*
0 $1 Rounding radius*
0 $2 $3 $4 $5 $6 $7 $8 $9 X,Y pos of 4 corners*
0 Add a 4 corners polygon primitive as box body*
4,1,4,$2,$3,$4,$5,$6,$7,$8,$9,$2,$3,0*
0 Add four circle primitives for the rounded corners*
1,1,$1+$1,$2,$3*
1,1,$1+$1,$4,$5*
1,1,$1+$1,$6,$7*
1,1,$1+$1,$8,$9*
0 Add four rect primitives between the rounded corners*
20,1,$1+$1,$2,$3,$4,$5,0*
20,1,$1+$1,$4,$5,$6,$7,0*
20,1,$1+$1,$6,$7,$8,$9,0*
20,1,$1+$1,$8,$9,$2,$3,0*%
G04 Aperture macros list end*
%ADD10RoundRect,0.375000X-0.375000X0.625000X-0.375000X-0.625000X0.375000X-0.625000X0.375000X0.625000X0*%
%ADD11RoundRect,0.500000X-1.400000X0.500000X-1.400000X-0.500000X1.400000X-0.500000X1.400000X0.500000X0*%
%ADD12C,2.800000*%
%ADD13C,2.000000*%
%ADD14RoundRect,0.250000X-0.350000X-0.450000X0.350000X-0.450000X0.350000X0.450000X-0.350000X0.450000X0*%
%ADD15RoundRect,0.250000X0.350000X0.450000X-0.350000X0.450000X-0.350000X-0.450000X0.350000X-0.450000X0*%
%ADD16RoundRect,0.250000X0.450000X-0.350000X0.450000X0.350000X-0.450000X0.350000X-0.450000X-0.350000X0*%
%ADD17C,3.000000*%
%ADD18R,3.000000X3.000000*%
%ADD19R,1.700000X1.700000*%
%ADD20O,1.700000X1.700000*%
%ADD21RoundRect,0.250000X-0.325000X-0.450000X0.325000X-0.450000X0.325000X0.450000X-0.325000X0.450000X0*%
%ADD22RoundRect,0.250000X-0.337500X-0.475000X0.337500X-0.475000X0.337500X0.475000X-0.337500X0.475000X0*%
%ADD23RoundRect,0.250000X-0.475000X0.337500X-0.475000X-0.337500X0.475000X-0.337500X0.475000X0.337500X0*%
%ADD24RoundRect,0.062500X-0.375000X-0.062500X0.375000X-0.062500X0.375000X0.062500X-0.375000X0.062500X0*%
%ADD25RoundRect,0.062500X-0.062500X-0.375000X0.062500X-0.375000X0.062500X0.375000X-0.062500X0.375000X0*%
%ADD26R,3.450000X3.450000*%
G04 APERTURE END LIST*
D10*
%TO.C,U2*%
X62632500Y-32632500D03*
D11*
X64932500Y-38932500D03*
D10*
X64932500Y-32632500D03*
X67232500Y-32632500D03*
%TD*%
D12*
%TO.C,TP2*%
X58432500Y-27932500D03*
%TD*%
%TO.C,TP1*%
X69932500Y-27932500D03*
%TD*%
D13*
%TO.C,SW4*%
X28500000Y-61000000D03*
X35000000Y-61000000D03*
X28500000Y-65500000D03*
X35000000Y-65500000D03*
%TD*%
%TO.C,SW3*%
X28750000Y-48750000D03*
X35250000Y-48750000D03*
X28750000Y-53250000D03*
X35250000Y-53250000D03*
%TD*%
%TO.C,SW2*%
X28500000Y-36500000D03*
X35000000Y-36500000D03*
X28500000Y-41000000D03*
X35000000Y-41000000D03*
%TD*%
%TO.C,SW1*%
X28500000Y-25000000D03*
X35000000Y-25000000D03*
X28500000Y-29500000D03*
X35000000Y-29500000D03*
%TD*%
D14*
%TO.C,R10*%
X43000000Y-65500000D03*
X45000000Y-65500000D03*
%TD*%
%TO.C,R9*%
X38500000Y-61000000D03*
X40500000Y-61000000D03*
%TD*%
%TO.C,R8*%
X43500000Y-53500000D03*
X45500000Y-53500000D03*
%TD*%
%TO.C,R7*%
X39000000Y-49000000D03*
X41000000Y-49000000D03*
%TD*%
%TO.C,R6*%
X44000000Y-41000000D03*
X46000000Y-41000000D03*
%TD*%
%TO.C,R5*%
X39000000Y-36500000D03*
X41000000Y-36500000D03*
%TD*%
%TO.C,R4*%
X36500000Y-78500000D03*
X38500000Y-78500000D03*
%TD*%
%TO.C,R3*%
X36500000Y-72000000D03*
X38500000Y-72000000D03*
%TD*%
D15*
%TO.C,R2*%
X41500000Y-30000000D03*
X39500000Y-30000000D03*
%TD*%
D16*
%TO.C,R1*%
X46000000Y-27000000D03*
X46000000Y-25000000D03*
%TD*%
D17*
%TO.C,J4*%
X96500000Y-28000000D03*
D18*
X91500000Y-28000000D03*
%TD*%
D17*
%TO.C,J3*%
X82500000Y-28000000D03*
D18*
X77500000Y-28000000D03*
%TD*%
D19*
%TO.C,J2*%
X49460000Y-87000000D03*
D20*
X49460000Y-84460000D03*
X52000000Y-87000000D03*
X52000000Y-84460000D03*
X54540000Y-87000000D03*
X54540000Y-84460000D03*
X57080000Y-87000000D03*
X57080000Y-84460000D03*
X59620000Y-87000000D03*
X59620000Y-84460000D03*
%TD*%
D19*
%TO.C,J1*%
X71880000Y-86500000D03*
D20*
X74420000Y-86500000D03*
X76960000Y-86500000D03*
X79500000Y-86500000D03*
X82040000Y-86500000D03*
X84580000Y-86500000D03*
%TD*%
D21*
%TO.C,D3*%
X30950000Y-78500000D03*
X33000000Y-78500000D03*
%TD*%
%TO.C,D2*%
X31000000Y-72000000D03*
X33050000Y-72000000D03*
%TD*%
%TO.C,D1*%
X39475000Y-25000000D03*
X41525000Y-25000000D03*
%TD*%
D22*
%TO.C,C5*%
X38462500Y-65500000D03*
X40537500Y-65500000D03*
%TD*%
%TO.C,C4*%
X38962500Y-53500000D03*
X41037500Y-53500000D03*
%TD*%
%TO.C,C3*%
X39000000Y-41000000D03*
X41075000Y-41000000D03*
%TD*%
D23*
%TO.C,C2*%
X58432500Y-38007500D03*
X58432500Y-35932500D03*
%TD*%
%TO.C,C1*%
X71932500Y-38507500D03*
X71932500Y-36432500D03*
%TD*%
D24*
%TO.C,U1*%
X56562500Y-64600000D03*
X56562500Y-65100000D03*
X56562500Y-65600000D03*
X56562500Y-66100000D03*
X56562500Y-66600000D03*
X56562500Y-67100000D03*
X56562500Y-67600000D03*
X56562500Y-68100000D03*
D25*
X57250000Y-68787500D03*
X57750000Y-68787500D03*
X58250000Y-68787500D03*
X58750000Y-68787500D03*
X59250000Y-68787500D03*
X59750000Y-68787500D03*
X60250000Y-68787500D03*
X60750000Y-68787500D03*
D24*
X61437500Y-68100000D03*
X61437500Y-67600000D03*
X61437500Y-67100000D03*
X61437500Y-66600000D03*
X61437500Y-66100000D03*
X61437500Y-65600000D03*
X61437500Y-65100000D03*
X61437500Y-64600000D03*
D25*
X60750000Y-63912500D03*
X60250000Y-63912500D03*
X59750000Y-63912500D03*
X59250000Y-63912500D03*
X58750000Y-63912500D03*
X58250000Y-63912500D03*
X57750000Y-63912500D03*
X57250000Y-63912500D03*
D26*
X59000000Y-66350000D03*
%TD*%
M02*
