%TF.GenerationSoftware,KiCad,Pcbnew,8.0.5*%
%TF.CreationDate,2024-11-07T20:07:23-06:00*%
%TF.ProjectId,LEDDashboard,4c454444-6173-4686-926f-6172642e6b69,rev?*%
%TF.SameCoordinates,Original*%
%TF.FileFunction,Copper,L1,Top*%
%TF.FilePolarity,Positive*%
%FSLAX46Y46*%
G04 Gerber Fmt 4.6, Leading zero omitted, Abs format (unit mm)*
G04 Created by KiCad (PCBNEW 8.0.5) date 2024-11-07 20:07:23*
%MOMM*%
%LPD*%
G01*
G04 APERTURE LIST*
G04 Aperture macros list*
%AMRoundRect*
0 Rectangle with rounded corners*
0 $1 Rounding radius*
0 $2 $3 $4 $5 $6 $7 $8 $9 X,Y pos of 4 corners*
0 Add a 4 corners polygon primitive as box body*
4,1,4,$2,$3,$4,$5,$6,$7,$8,$9,$2,$3,0*
0 Add four circle primitives for the rounded corners*
1,1,$1+$1,$2,$3*
1,1,$1+$1,$4,$5*
1,1,$1+$1,$6,$7*
1,1,$1+$1,$8,$9*
0 Add four rect primitives between the rounded corners*
20,1,$1+$1,$2,$3,$4,$5,0*
20,1,$1+$1,$4,$5,$6,$7,0*
20,1,$1+$1,$6,$7,$8,$9,0*
20,1,$1+$1,$8,$9,$2,$3,0*%
G04 Aperture macros list end*
%TA.AperFunction,NonConductor*%
%ADD10C,0.200000*%
%TD*%
%TA.AperFunction,SMDPad,CuDef*%
%ADD11RoundRect,0.375000X-0.375000X0.625000X-0.375000X-0.625000X0.375000X-0.625000X0.375000X0.625000X0*%
%TD*%
%TA.AperFunction,SMDPad,CuDef*%
%ADD12RoundRect,0.500000X-1.400000X0.500000X-1.400000X-0.500000X1.400000X-0.500000X1.400000X0.500000X0*%
%TD*%
%TA.AperFunction,ComponentPad*%
%ADD13C,2.800000*%
%TD*%
%TA.AperFunction,ComponentPad*%
%ADD14C,2.000000*%
%TD*%
%TA.AperFunction,SMDPad,CuDef*%
%ADD15RoundRect,0.250000X-0.350000X-0.450000X0.350000X-0.450000X0.350000X0.450000X-0.350000X0.450000X0*%
%TD*%
%TA.AperFunction,SMDPad,CuDef*%
%ADD16RoundRect,0.250000X0.350000X0.450000X-0.350000X0.450000X-0.350000X-0.450000X0.350000X-0.450000X0*%
%TD*%
%TA.AperFunction,SMDPad,CuDef*%
%ADD17RoundRect,0.250000X0.450000X-0.350000X0.450000X0.350000X-0.450000X0.350000X-0.450000X-0.350000X0*%
%TD*%
%TA.AperFunction,ComponentPad*%
%ADD18C,3.000000*%
%TD*%
%TA.AperFunction,ComponentPad*%
%ADD19R,3.000000X3.000000*%
%TD*%
%TA.AperFunction,ComponentPad*%
%ADD20R,1.700000X1.700000*%
%TD*%
%TA.AperFunction,ComponentPad*%
%ADD21O,1.700000X1.700000*%
%TD*%
%TA.AperFunction,SMDPad,CuDef*%
%ADD22RoundRect,0.250000X-0.325000X-0.450000X0.325000X-0.450000X0.325000X0.450000X-0.325000X0.450000X0*%
%TD*%
%TA.AperFunction,SMDPad,CuDef*%
%ADD23RoundRect,0.250000X-0.337500X-0.475000X0.337500X-0.475000X0.337500X0.475000X-0.337500X0.475000X0*%
%TD*%
%TA.AperFunction,SMDPad,CuDef*%
%ADD24RoundRect,0.250000X-0.475000X0.337500X-0.475000X-0.337500X0.475000X-0.337500X0.475000X0.337500X0*%
%TD*%
%TA.AperFunction,SMDPad,CuDef*%
%ADD25RoundRect,0.062500X-0.375000X-0.062500X0.375000X-0.062500X0.375000X0.062500X-0.375000X0.062500X0*%
%TD*%
%TA.AperFunction,SMDPad,CuDef*%
%ADD26RoundRect,0.062500X-0.062500X-0.375000X0.062500X-0.375000X0.062500X0.375000X-0.062500X0.375000X0*%
%TD*%
%TA.AperFunction,HeatsinkPad*%
%ADD27R,3.450000X3.450000*%
%TD*%
%TA.AperFunction,ViaPad*%
%ADD28C,0.600000*%
%TD*%
%TA.AperFunction,Conductor*%
%ADD29C,0.200000*%
%TD*%
G04 APERTURE END LIST*
D10*
X24000000Y-21000000D02*
X103500000Y-21000000D01*
X103500000Y-91000000D01*
X24000000Y-91000000D01*
X24000000Y-21000000D01*
D11*
%TO.P,U2,3,VO*%
%TO.N,+3.3V*%
X62632500Y-32632500D03*
D12*
%TO.P,U2,2,GND*%
%TO.N,GND*%
X64932500Y-38932500D03*
D11*
X64932500Y-32632500D03*
%TO.P,U2,1,VI*%
%TO.N,+5V*%
X67232500Y-32632500D03*
%TD*%
D13*
%TO.P,TP2,1,1*%
%TO.N,+3.3V*%
X58432500Y-27932500D03*
%TD*%
%TO.P,TP1,1,1*%
%TO.N,+5V*%
X69932500Y-27932500D03*
%TD*%
D14*
%TO.P,SW4,1,1*%
%TO.N,Net-(U1-PA6)*%
X28500000Y-61000000D03*
X35000000Y-61000000D03*
%TO.P,SW4,2,2*%
%TO.N,Net-(C5-Pad1)*%
X28500000Y-65500000D03*
X35000000Y-65500000D03*
%TD*%
%TO.P,SW3,1,1*%
%TO.N,Net-(U1-PA5)*%
X28750000Y-48750000D03*
X35250000Y-48750000D03*
%TO.P,SW3,2,2*%
%TO.N,Net-(C4-Pad1)*%
X28750000Y-53250000D03*
X35250000Y-53250000D03*
%TD*%
%TO.P,SW2,1,1*%
%TO.N,Net-(U1-PA4)*%
X28500000Y-36500000D03*
X35000000Y-36500000D03*
%TO.P,SW2,2,2*%
%TO.N,Net-(C3-Pad1)*%
X28500000Y-41000000D03*
X35000000Y-41000000D03*
%TD*%
%TO.P,SW1,1,1*%
%TO.N,GND*%
X28500000Y-25000000D03*
X35000000Y-25000000D03*
%TO.P,SW1,2,2*%
%TO.N,Net-(U1-NRST)*%
X28500000Y-29500000D03*
X35000000Y-29500000D03*
%TD*%
D15*
%TO.P,R10,1*%
%TO.N,Net-(C5-Pad1)*%
X43000000Y-65500000D03*
%TO.P,R10,2*%
%TO.N,+3.3V*%
X45000000Y-65500000D03*
%TD*%
%TO.P,R9,1*%
%TO.N,Net-(U1-PA6)*%
X38500000Y-61000000D03*
%TO.P,R9,2*%
%TO.N,Net-(C5-Pad2)*%
X40500000Y-61000000D03*
%TD*%
%TO.P,R8,1*%
%TO.N,Net-(C4-Pad1)*%
X43500000Y-53500000D03*
%TO.P,R8,2*%
%TO.N,+3.3V*%
X45500000Y-53500000D03*
%TD*%
%TO.P,R7,1*%
%TO.N,Net-(U1-PA5)*%
X39000000Y-49000000D03*
%TO.P,R7,2*%
%TO.N,Net-(C4-Pad2)*%
X41000000Y-49000000D03*
%TD*%
%TO.P,R6,1*%
%TO.N,Net-(C3-Pad1)*%
X44000000Y-41000000D03*
%TO.P,R6,2*%
%TO.N,+3.3V*%
X46000000Y-41000000D03*
%TD*%
%TO.P,R5,1*%
%TO.N,Net-(U1-PA4)*%
X39000000Y-36500000D03*
%TO.P,R5,2*%
%TO.N,Net-(C3-Pad2)*%
X41000000Y-36500000D03*
%TD*%
%TO.P,R4,1*%
%TO.N,Net-(D3-A)*%
X36500000Y-78500000D03*
%TO.P,R4,2*%
%TO.N,Net-(U1-PA1)*%
X38500000Y-78500000D03*
%TD*%
%TO.P,R3,1*%
%TO.N,Net-(D2-A)*%
X36500000Y-72000000D03*
%TO.P,R3,2*%
%TO.N,Net-(U1-PA0)*%
X38500000Y-72000000D03*
%TD*%
D16*
%TO.P,R2,1*%
%TO.N,+3.3V*%
X41500000Y-30000000D03*
%TO.P,R2,2*%
%TO.N,Net-(U1-NRST)*%
X39500000Y-30000000D03*
%TD*%
D17*
%TO.P,R1,1*%
%TO.N,+3.3V*%
X46000000Y-27000000D03*
%TO.P,R1,2*%
%TO.N,Net-(D1-A)*%
X46000000Y-25000000D03*
%TD*%
D18*
%TO.P,J4,2,Pin_2*%
%TO.N,GND*%
X96500000Y-28000000D03*
D19*
%TO.P,J4,1,Pin_1*%
%TO.N,/LedData*%
X91500000Y-28000000D03*
%TD*%
D18*
%TO.P,J3,2,Pin_2*%
%TO.N,GND*%
X82500000Y-28000000D03*
D19*
%TO.P,J3,1,Pin_1*%
%TO.N,+5V*%
X77500000Y-28000000D03*
%TD*%
D20*
%TO.P,J2,1,Pin_1*%
%TO.N,/SWCLK*%
X49460000Y-87000000D03*
D21*
%TO.P,J2,2,Pin_2*%
%TO.N,/SWDIO*%
X49460000Y-84460000D03*
%TO.P,J2,3,Pin_3*%
%TO.N,GND*%
X52000000Y-87000000D03*
%TO.P,J2,4,Pin_4*%
X52000000Y-84460000D03*
%TO.P,J2,5,Pin_5*%
%TO.N,unconnected-(J2-Pin_5-Pad5)*%
X54540000Y-87000000D03*
%TO.P,J2,6,Pin_6*%
%TO.N,unconnected-(J2-Pin_6-Pad6)*%
X54540000Y-84460000D03*
%TO.P,J2,7,Pin_7*%
%TO.N,unconnected-(J2-Pin_7-Pad7)*%
X57080000Y-87000000D03*
%TO.P,J2,8,Pin_8*%
%TO.N,unconnected-(J2-Pin_8-Pad8)*%
X57080000Y-84460000D03*
%TO.P,J2,9,Pin_9*%
%TO.N,unconnected-(J2-Pin_9-Pad9)*%
X59620000Y-87000000D03*
%TO.P,J2,10,Pin_10*%
%TO.N,unconnected-(J2-Pin_10-Pad10)*%
X59620000Y-84460000D03*
%TD*%
D20*
%TO.P,J1,1,Pin_1*%
%TO.N,GND*%
X71880000Y-86500000D03*
D21*
%TO.P,J1,2,Pin_2*%
%TO.N,unconnected-(J1-Pin_2-Pad2)*%
X74420000Y-86500000D03*
%TO.P,J1,3,Pin_3*%
%TO.N,unconnected-(J1-Pin_3-Pad3)*%
X76960000Y-86500000D03*
%TO.P,J1,4,Pin_4*%
%TO.N,/TX*%
X79500000Y-86500000D03*
%TO.P,J1,5,Pin_5*%
%TO.N,/RX*%
X82040000Y-86500000D03*
%TO.P,J1,6,Pin_6*%
%TO.N,unconnected-(J1-Pin_6-Pad6)*%
X84580000Y-86500000D03*
%TD*%
D22*
%TO.P,D3,1,K*%
%TO.N,GND*%
X30950000Y-78500000D03*
%TO.P,D3,2,A*%
%TO.N,Net-(D3-A)*%
X33000000Y-78500000D03*
%TD*%
%TO.P,D2,1,K*%
%TO.N,GND*%
X31000000Y-72000000D03*
%TO.P,D2,2,A*%
%TO.N,Net-(D2-A)*%
X33050000Y-72000000D03*
%TD*%
%TO.P,D1,1,K*%
%TO.N,GND*%
X39475000Y-25000000D03*
%TO.P,D1,2,A*%
%TO.N,Net-(D1-A)*%
X41525000Y-25000000D03*
%TD*%
D23*
%TO.P,C5,1*%
%TO.N,Net-(C5-Pad1)*%
X38462500Y-65500000D03*
%TO.P,C5,2*%
%TO.N,Net-(C5-Pad2)*%
X40537500Y-65500000D03*
%TD*%
%TO.P,C4,1*%
%TO.N,Net-(C4-Pad1)*%
X38962500Y-53500000D03*
%TO.P,C4,2*%
%TO.N,Net-(C4-Pad2)*%
X41037500Y-53500000D03*
%TD*%
%TO.P,C3,1*%
%TO.N,Net-(C3-Pad1)*%
X39000000Y-41000000D03*
%TO.P,C3,2*%
%TO.N,Net-(C3-Pad2)*%
X41075000Y-41000000D03*
%TD*%
D24*
%TO.P,C2,2*%
%TO.N,GND*%
X58432500Y-38007500D03*
%TO.P,C2,1*%
%TO.N,+3.3V*%
X58432500Y-35932500D03*
%TD*%
%TO.P,C1,2*%
%TO.N,GND*%
X71932500Y-38507500D03*
%TO.P,C1,1*%
%TO.N,+5V*%
X71932500Y-36432500D03*
%TD*%
D25*
%TO.P,U1,1,VDD*%
%TO.N,+3.3V*%
X56562500Y-64600000D03*
%TO.P,U1,2,PC14*%
%TO.N,unconnected-(U1-PC14-Pad2)*%
X56562500Y-65100000D03*
%TO.P,U1,3,PC15*%
%TO.N,unconnected-(U1-PC15-Pad3)*%
X56562500Y-65600000D03*
%TO.P,U1,4,NRST*%
%TO.N,Net-(U1-NRST)*%
X56562500Y-66100000D03*
%TO.P,U1,5,VDDA*%
%TO.N,+3.3V*%
X56562500Y-66600000D03*
%TO.P,U1,6,PA0*%
%TO.N,Net-(U1-PA0)*%
X56562500Y-67100000D03*
%TO.P,U1,7,PA1*%
%TO.N,Net-(U1-PA1)*%
X56562500Y-67600000D03*
%TO.P,U1,8,PA2*%
%TO.N,/TX*%
X56562500Y-68100000D03*
D26*
%TO.P,U1,9,PA3*%
%TO.N,/RX*%
X57250000Y-68787500D03*
%TO.P,U1,10,PA4*%
%TO.N,Net-(U1-PA4)*%
X57750000Y-68787500D03*
%TO.P,U1,11,PA5*%
%TO.N,Net-(U1-PA5)*%
X58250000Y-68787500D03*
%TO.P,U1,12,PA6*%
%TO.N,Net-(U1-PA6)*%
X58750000Y-68787500D03*
%TO.P,U1,13,PA7*%
%TO.N,unconnected-(U1-PA7-Pad13)*%
X59250000Y-68787500D03*
%TO.P,U1,14,PB0*%
%TO.N,unconnected-(U1-PB0-Pad14)*%
X59750000Y-68787500D03*
%TO.P,U1,15,PB1*%
%TO.N,unconnected-(U1-PB1-Pad15)*%
X60250000Y-68787500D03*
%TO.P,U1,16,VSS*%
%TO.N,GND*%
X60750000Y-68787500D03*
D25*
%TO.P,U1,17,VDD*%
%TO.N,+3.3V*%
X61437500Y-68100000D03*
%TO.P,U1,18,PA8*%
%TO.N,/LedData*%
X61437500Y-67600000D03*
%TO.P,U1,19,PA9*%
%TO.N,unconnected-(U1-PA9-Pad19)*%
X61437500Y-67100000D03*
%TO.P,U1,20,PA10*%
%TO.N,unconnected-(U1-PA10-Pad20)*%
X61437500Y-66600000D03*
%TO.P,U1,21,PA11*%
%TO.N,unconnected-(U1-PA11-Pad21)*%
X61437500Y-66100000D03*
%TO.P,U1,22,PA12*%
%TO.N,unconnected-(U1-PA12-Pad22)*%
X61437500Y-65600000D03*
%TO.P,U1,23,PA13*%
%TO.N,/SWDIO*%
X61437500Y-65100000D03*
%TO.P,U1,24,PA14*%
%TO.N,/SWCLK*%
X61437500Y-64600000D03*
D26*
%TO.P,U1,25,PA15*%
%TO.N,unconnected-(U1-PA15-Pad25)*%
X60750000Y-63912500D03*
%TO.P,U1,26,PB3*%
%TO.N,unconnected-(U1-PB3-Pad26)*%
X60250000Y-63912500D03*
%TO.P,U1,27,PB4*%
%TO.N,unconnected-(U1-PB4-Pad27)*%
X59750000Y-63912500D03*
%TO.P,U1,28,PB5*%
%TO.N,unconnected-(U1-PB5-Pad28)*%
X59250000Y-63912500D03*
%TO.P,U1,29,PB6*%
%TO.N,unconnected-(U1-PB6-Pad29)*%
X58750000Y-63912500D03*
%TO.P,U1,30,PB7*%
%TO.N,unconnected-(U1-PB7-Pad30)*%
X58250000Y-63912500D03*
%TO.P,U1,31,PH3*%
%TO.N,GND*%
X57750000Y-63912500D03*
%TO.P,U1,32,VSS*%
X57250000Y-63912500D03*
D27*
%TO.P,U1,33,VSS*%
X59000000Y-66350000D03*
%TD*%
D28*
%TO.N,Net-(U1-PA5)*%
X59000000Y-74000000D03*
%TO.N,Net-(U1-PA4)*%
X58000000Y-74000000D03*
%TO.N,Net-(U1-PA6)*%
X59000000Y-72500000D03*
X49000000Y-65500000D03*
%TO.N,/SWDIO*%
X63000000Y-65500000D03*
%TO.N,/SWCLK*%
X63000000Y-64500000D03*
%TO.N,/SWDIO*%
X60000000Y-80500000D03*
%TO.N,/SWCLK*%
X62000000Y-80500000D03*
%TO.N,GND*%
X66500000Y-69500000D03*
X28000000Y-75000000D03*
X69432500Y-42432500D03*
%TD*%
D29*
%TO.N,/LedData*%
X73535000Y-67600000D02*
X91500000Y-49635000D01*
X91500000Y-49635000D02*
X91500000Y-28000000D01*
%TO.N,+3.3V*%
X56562500Y-66600000D02*
X54600000Y-66600000D01*
X54600000Y-66600000D02*
X54000000Y-66000000D01*
X55500000Y-63537500D02*
X55500000Y-63000000D01*
X56562500Y-64600000D02*
X55500000Y-63537500D01*
%TO.N,Net-(U1-PA6)*%
X59000000Y-72500000D02*
X58750000Y-72250000D01*
X58750000Y-72250000D02*
X58750000Y-68787500D01*
%TO.N,+3.3V*%
X62300000Y-68500000D02*
X65500000Y-68500000D01*
X61900000Y-68100000D02*
X62300000Y-68500000D01*
X61437500Y-68100000D02*
X61900000Y-68100000D01*
%TO.N,Net-(U1-PA5)*%
X58250000Y-73250000D02*
X59000000Y-74000000D01*
X58250000Y-68787500D02*
X58250000Y-73250000D01*
%TO.N,Net-(U1-PA4)*%
X57750000Y-73750000D02*
X58000000Y-74000000D01*
X57750000Y-68787500D02*
X57750000Y-73750000D01*
%TO.N,/RX*%
X82040000Y-86500000D02*
X71040000Y-75500000D01*
X71040000Y-75500000D02*
X57250000Y-75500000D01*
X57250000Y-75500000D02*
X57250000Y-68787500D01*
%TO.N,/TX*%
X79500000Y-86500000D02*
X79500000Y-85012843D01*
X79500000Y-85012843D02*
X70987157Y-76500000D01*
X70987157Y-76500000D02*
X56562500Y-76500000D01*
X56562500Y-76500000D02*
X56562500Y-68100000D01*
%TO.N,Net-(U1-PA6)*%
X38500000Y-60000000D02*
X39500000Y-59000000D01*
X42500000Y-59000000D02*
X49000000Y-65500000D01*
X38500000Y-61000000D02*
X38500000Y-60000000D01*
X39500000Y-59000000D02*
X42500000Y-59000000D01*
%TO.N,/SWDIO*%
X63000000Y-65500000D02*
X62600000Y-65100000D01*
X62600000Y-65100000D02*
X61437500Y-65100000D01*
%TO.N,/SWCLK*%
X63000000Y-64500000D02*
X61537500Y-64500000D01*
X61537500Y-64500000D02*
X61437500Y-64600000D01*
X49460000Y-87960000D02*
X50500000Y-89000000D01*
X62000000Y-89000000D02*
X62000000Y-80500000D01*
X49460000Y-87000000D02*
X49460000Y-87960000D01*
X50500000Y-89000000D02*
X62000000Y-89000000D01*
%TO.N,/SWDIO*%
X53420000Y-80500000D02*
X60000000Y-80500000D01*
X49460000Y-84460000D02*
X53420000Y-80500000D01*
%TO.N,Net-(U1-NRST)*%
X56562500Y-66100000D02*
X56110614Y-66100000D01*
X56110614Y-66100000D02*
X52500000Y-62489386D01*
X51000000Y-32000000D02*
X40500000Y-32000000D01*
X52500000Y-33500000D02*
X51000000Y-32000000D01*
X52500000Y-62489386D02*
X52500000Y-33500000D01*
X40500000Y-32000000D02*
X39500000Y-31000000D01*
X39500000Y-31000000D02*
X39500000Y-30000000D01*
%TO.N,Net-(C3-Pad2)*%
X41075000Y-41000000D02*
X41075000Y-36575000D01*
X41075000Y-36575000D02*
X41000000Y-36500000D01*
%TO.N,Net-(C3-Pad1)*%
X40000000Y-43000000D02*
X43000000Y-43000000D01*
X39000000Y-41000000D02*
X39000000Y-42000000D01*
X44000000Y-42000000D02*
X44000000Y-41000000D01*
X39000000Y-42000000D02*
X40000000Y-43000000D01*
X43000000Y-43000000D02*
X44000000Y-42000000D01*
X39000000Y-41000000D02*
X35000000Y-41000000D01*
%TO.N,Net-(C4-Pad1)*%
X43500000Y-53500000D02*
X43500000Y-54500000D01*
X42500000Y-55500000D02*
X40000000Y-55500000D01*
X43500000Y-54500000D02*
X42500000Y-55500000D01*
X40000000Y-55500000D02*
X38962500Y-54462500D01*
X38962500Y-54462500D02*
X38962500Y-53500000D01*
%TO.N,Net-(C4-Pad2)*%
X41037500Y-53500000D02*
X41037500Y-49037500D01*
X41037500Y-49037500D02*
X41000000Y-49000000D01*
%TO.N,Net-(C4-Pad1)*%
X38962500Y-53500000D02*
X35500000Y-53500000D01*
X35500000Y-53500000D02*
X35250000Y-53250000D01*
%TO.N,Net-(C5-Pad1)*%
X40000000Y-67500000D02*
X42000000Y-67500000D01*
X42000000Y-67500000D02*
X43000000Y-66500000D01*
X38462500Y-65500000D02*
X38462500Y-65962500D01*
X43000000Y-66500000D02*
X43000000Y-65500000D01*
X38462500Y-65962500D02*
X40000000Y-67500000D01*
X38462500Y-65500000D02*
X35000000Y-65500000D01*
%TO.N,Net-(C5-Pad2)*%
X40500000Y-61000000D02*
X40500000Y-61500000D01*
X40500000Y-61500000D02*
X40537500Y-61537500D01*
X40537500Y-61537500D02*
X40537500Y-65500000D01*
%TO.N,Net-(U1-PA6)*%
X35000000Y-61000000D02*
X28500000Y-61000000D01*
X38500000Y-61000000D02*
X35000000Y-61000000D01*
%TO.N,Net-(U1-PA5)*%
X35250000Y-48750000D02*
X28750000Y-48750000D01*
X39000000Y-49000000D02*
X38500000Y-49000000D01*
X38500000Y-49000000D02*
X38250000Y-48750000D01*
X38250000Y-48750000D02*
X35250000Y-48750000D01*
%TO.N,Net-(U1-PA4)*%
X35000000Y-36500000D02*
X28500000Y-36500000D01*
X39000000Y-36500000D02*
X35000000Y-36500000D01*
%TO.N,Net-(U1-NRST)*%
X35000000Y-29500000D02*
X35500000Y-29500000D01*
X36000000Y-30000000D02*
X39500000Y-30000000D01*
X35500000Y-29500000D02*
X36000000Y-30000000D01*
%TO.N,GND*%
X35000000Y-25000000D02*
X28500000Y-25000000D01*
X39475000Y-25000000D02*
X35000000Y-25000000D01*
%TO.N,Net-(D1-A)*%
X46000000Y-25000000D02*
X41525000Y-25000000D01*
%TO.N,+5V*%
X67432500Y-32432500D02*
X69932500Y-29932500D01*
X69932500Y-29932500D02*
X69932500Y-27932500D01*
%TO.N,GND*%
X64932500Y-32432500D02*
X64932500Y-36932500D01*
X64932500Y-36932500D02*
X63932500Y-37932500D01*
X64932500Y-38932500D02*
X64007500Y-38007500D01*
X64007500Y-38007500D02*
X58432500Y-38007500D01*
X69432500Y-42432500D02*
X68932500Y-41932500D01*
X67932500Y-41932500D02*
X64932500Y-38932500D01*
X68932500Y-41932500D02*
X67932500Y-41932500D01*
X69432500Y-42432500D02*
X71932500Y-39932500D01*
X71932500Y-39932500D02*
X71932500Y-38507500D01*
X31000000Y-72000000D02*
X28000000Y-75000000D01*
X30950000Y-78500000D02*
X30950000Y-77950000D01*
X30950000Y-77950000D02*
X28000000Y-75000000D01*
X57750000Y-63912500D02*
X57250000Y-63912500D01*
X59000000Y-66350000D02*
X57750000Y-65100000D01*
X57750000Y-65100000D02*
X57750000Y-63912500D01*
X60750000Y-68787500D02*
X60700000Y-68737500D01*
X60700000Y-68737500D02*
X60700000Y-68050000D01*
X60700000Y-68050000D02*
X59000000Y-66350000D01*
X66500000Y-69500000D02*
X61462500Y-69500000D01*
X61462500Y-69500000D02*
X60750000Y-68787500D01*
%TO.N,/LedData*%
X73535000Y-67600000D02*
X61437500Y-67600000D01*
%TO.N,Net-(U1-PA0)*%
X38500000Y-72000000D02*
X49000000Y-72000000D01*
X49000000Y-72000000D02*
X53900000Y-67100000D01*
X53900000Y-67100000D02*
X56562500Y-67100000D01*
%TO.N,Net-(U1-PA1)*%
X56562500Y-67600000D02*
X53965686Y-67600000D01*
X53965686Y-67600000D02*
X43065686Y-78500000D01*
X43065686Y-78500000D02*
X38500000Y-78500000D01*
%TO.N,+3.3V*%
X58432500Y-27932500D02*
X58432500Y-35932500D01*
%TO.N,+5V*%
X77500000Y-28000000D02*
X70000000Y-28000000D01*
X70000000Y-28000000D02*
X69932500Y-27932500D01*
X71932500Y-36432500D02*
X71932500Y-29932500D01*
X71932500Y-29932500D02*
X69932500Y-27932500D01*
%TO.N,Net-(U1-NRST)*%
X35000000Y-29500000D02*
X28500000Y-29500000D01*
%TO.N,Net-(C3-Pad1)*%
X35000000Y-41000000D02*
X28500000Y-41000000D01*
%TO.N,Net-(C5-Pad1)*%
X35000000Y-65500000D02*
X28500000Y-65500000D01*
%TO.N,Net-(C4-Pad1)*%
X35250000Y-53250000D02*
X28750000Y-53250000D01*
%TO.N,Net-(D2-A)*%
X36500000Y-72000000D02*
X33050000Y-72000000D01*
%TO.N,Net-(D3-A)*%
X33000000Y-78500000D02*
X36500000Y-78500000D01*
%TD*%
%TA.AperFunction,Conductor*%
%TO.N,+3.3V*%
G36*
X102842539Y-21620185D02*
G01*
X102888294Y-21672989D01*
X102899500Y-21724500D01*
X102899500Y-90275500D01*
X102879815Y-90342539D01*
X102827011Y-90388294D01*
X102775500Y-90399500D01*
X24724500Y-90399500D01*
X24657461Y-90379815D01*
X24611706Y-90327011D01*
X24600500Y-90275500D01*
X24600500Y-84459999D01*
X48104341Y-84459999D01*
X48104341Y-84460000D01*
X48124936Y-84695403D01*
X48124938Y-84695413D01*
X48186094Y-84923655D01*
X48186096Y-84923659D01*
X48186097Y-84923663D01*
X48190000Y-84932032D01*
X48285965Y-85137830D01*
X48285967Y-85137834D01*
X48346602Y-85224429D01*
X48421501Y-85331396D01*
X48421506Y-85331402D01*
X48543430Y-85453326D01*
X48576915Y-85514649D01*
X48571931Y-85584341D01*
X48530059Y-85640274D01*
X48499083Y-85657189D01*
X48367669Y-85706203D01*
X48367664Y-85706206D01*
X48252455Y-85792452D01*
X48252452Y-85792455D01*
X48166206Y-85907664D01*
X48166202Y-85907671D01*
X48115908Y-86042517D01*
X48109501Y-86102116D01*
X48109500Y-86102135D01*
X48109500Y-87897870D01*
X48109501Y-87897876D01*
X48115908Y-87957483D01*
X48166202Y-88092328D01*
X48166206Y-88092335D01*
X48252452Y-88207544D01*
X48252455Y-88207547D01*
X48367664Y-88293793D01*
X48367671Y-88293797D01*
X48412618Y-88310561D01*
X48502517Y-88344091D01*
X48562127Y-88350500D01*
X48949901Y-88350499D01*
X49016940Y-88370183D01*
X49037582Y-88386818D01*
X49098349Y-88447585D01*
X49098355Y-88447590D01*
X50015139Y-89364374D01*
X50015149Y-89364385D01*
X50019479Y-89368715D01*
X50019480Y-89368716D01*
X50131284Y-89480520D01*
X50218095Y-89530639D01*
X50218097Y-89530641D01*
X50256151Y-89552611D01*
X50268215Y-89559577D01*
X50420943Y-89600500D01*
X50420945Y-89600500D01*
X62079055Y-89600500D01*
X62079057Y-89600500D01*
X62231784Y-89559577D01*
X62368716Y-89480520D01*
X62480520Y-89368716D01*
X62559577Y-89231784D01*
X62600500Y-89079057D01*
X62600500Y-81082412D01*
X62620185Y-81015373D01*
X62627555Y-81005097D01*
X62629810Y-81002267D01*
X62629816Y-81002262D01*
X62725789Y-80849522D01*
X62785368Y-80679255D01*
X62805565Y-80500000D01*
X62785368Y-80320745D01*
X62725789Y-80150478D01*
X62629816Y-79997738D01*
X62502262Y-79870184D01*
X62349523Y-79774211D01*
X62179254Y-79714631D01*
X62179249Y-79714630D01*
X62000004Y-79694435D01*
X61999996Y-79694435D01*
X61820750Y-79714630D01*
X61820745Y-79714631D01*
X61650476Y-79774211D01*
X61497737Y-79870184D01*
X61370184Y-79997737D01*
X61274211Y-80150476D01*
X61214631Y-80320745D01*
X61214630Y-80320750D01*
X61194435Y-80499996D01*
X61194435Y-80500003D01*
X61214630Y-80679249D01*
X61214631Y-80679254D01*
X61274211Y-80849523D01*
X61370185Y-81002263D01*
X61372445Y-81005097D01*
X61373334Y-81007275D01*
X61373889Y-81008158D01*
X61373734Y-81008255D01*
X61398855Y-81069783D01*
X61399500Y-81082412D01*
X61399500Y-88275500D01*
X61379815Y-88342539D01*
X61327011Y-88388294D01*
X61275500Y-88399500D01*
X60369110Y-88399500D01*
X60302071Y-88379815D01*
X60256316Y-88327011D01*
X60246372Y-88257853D01*
X60275397Y-88194297D01*
X60297987Y-88173925D01*
X60491401Y-88038495D01*
X60658495Y-87871401D01*
X60794035Y-87677830D01*
X60893903Y-87463663D01*
X60955063Y-87235408D01*
X60975659Y-87000000D01*
X60955063Y-86764592D01*
X60893903Y-86536337D01*
X60794035Y-86322171D01*
X60788425Y-86314158D01*
X60658494Y-86128597D01*
X60491402Y-85961506D01*
X60491396Y-85961501D01*
X60305842Y-85831575D01*
X60262217Y-85776998D01*
X60255023Y-85707500D01*
X60286546Y-85645145D01*
X60305842Y-85628425D01*
X60370101Y-85583430D01*
X60491401Y-85498495D01*
X60658495Y-85331401D01*
X60794035Y-85137830D01*
X60893903Y-84923663D01*
X60955063Y-84695408D01*
X60975659Y-84460000D01*
X60955063Y-84224592D01*
X60893903Y-83996337D01*
X60794035Y-83782171D01*
X60788425Y-83774158D01*
X60658494Y-83588597D01*
X60491402Y-83421506D01*
X60491395Y-83421501D01*
X60297834Y-83285967D01*
X60297830Y-83285965D01*
X60297828Y-83285964D01*
X60083663Y-83186097D01*
X60083659Y-83186096D01*
X60083655Y-83186094D01*
X59855413Y-83124938D01*
X59855403Y-83124936D01*
X59620001Y-83104341D01*
X59619999Y-83104341D01*
X59384596Y-83124936D01*
X59384586Y-83124938D01*
X59156344Y-83186094D01*
X59156335Y-83186098D01*
X58942171Y-83285964D01*
X58942169Y-83285965D01*
X58748597Y-83421505D01*
X58581505Y-83588597D01*
X58451575Y-83774158D01*
X58396998Y-83817783D01*
X58327500Y-83824977D01*
X58265145Y-83793454D01*
X58248425Y-83774158D01*
X58118494Y-83588597D01*
X57951402Y-83421506D01*
X57951395Y-83421501D01*
X57757834Y-83285967D01*
X57757830Y-83285965D01*
X57757828Y-83285964D01*
X57543663Y-83186097D01*
X57543659Y-83186096D01*
X57543655Y-83186094D01*
X57315413Y-83124938D01*
X57315403Y-83124936D01*
X57080001Y-83104341D01*
X57079999Y-83104341D01*
X56844596Y-83124936D01*
X56844586Y-83124938D01*
X56616344Y-83186094D01*
X56616335Y-83186098D01*
X56402171Y-83285964D01*
X56402169Y-83285965D01*
X56208597Y-83421505D01*
X56041505Y-83588597D01*
X55911575Y-83774158D01*
X55856998Y-83817783D01*
X55787500Y-83824977D01*
X55725145Y-83793454D01*
X55708425Y-83774158D01*
X55578494Y-83588597D01*
X55411402Y-83421506D01*
X55411395Y-83421501D01*
X55217834Y-83285967D01*
X55217830Y-83285965D01*
X55217828Y-83285964D01*
X55003663Y-83186097D01*
X55003659Y-83186096D01*
X55003655Y-83186094D01*
X54775413Y-83124938D01*
X54775403Y-83124936D01*
X54540001Y-83104341D01*
X54539999Y-83104341D01*
X54304596Y-83124936D01*
X54304586Y-83124938D01*
X54076344Y-83186094D01*
X54076335Y-83186098D01*
X53862171Y-83285964D01*
X53862169Y-83285965D01*
X53668597Y-83421505D01*
X53501505Y-83588597D01*
X53371575Y-83774158D01*
X53316998Y-83817783D01*
X53247500Y-83824977D01*
X53185145Y-83793454D01*
X53168425Y-83774158D01*
X53038494Y-83588597D01*
X52871402Y-83421506D01*
X52871395Y-83421501D01*
X52677834Y-83285967D01*
X52677830Y-83285965D01*
X52677828Y-83285964D01*
X52463663Y-83186097D01*
X52463659Y-83186096D01*
X52463655Y-83186094D01*
X52235413Y-83124938D01*
X52235403Y-83124936D01*
X52000001Y-83104341D01*
X51999998Y-83104341D01*
X51972154Y-83106777D01*
X51903654Y-83093010D01*
X51853471Y-83044395D01*
X51837538Y-82976366D01*
X51860913Y-82910523D01*
X51873666Y-82895568D01*
X53632417Y-81136819D01*
X53693740Y-81103334D01*
X53720098Y-81100500D01*
X59417588Y-81100500D01*
X59484627Y-81120185D01*
X59494903Y-81127555D01*
X59497736Y-81129814D01*
X59497738Y-81129816D01*
X59650478Y-81225789D01*
X59820745Y-81285368D01*
X59820750Y-81285369D01*
X59999996Y-81305565D01*
X60000000Y-81305565D01*
X60000004Y-81305565D01*
X60179249Y-81285369D01*
X60179252Y-81285368D01*
X60179255Y-81285368D01*
X60349522Y-81225789D01*
X60502262Y-81129816D01*
X60629816Y-81002262D01*
X60725789Y-80849522D01*
X60785368Y-80679255D01*
X60805565Y-80500000D01*
X60785368Y-80320745D01*
X60725789Y-80150478D01*
X60629816Y-79997738D01*
X60502262Y-79870184D01*
X60349523Y-79774211D01*
X60179254Y-79714631D01*
X60179249Y-79714630D01*
X60000004Y-79694435D01*
X59999996Y-79694435D01*
X59820750Y-79714630D01*
X59820745Y-79714631D01*
X59650476Y-79774211D01*
X59497736Y-79870185D01*
X59494903Y-79872445D01*
X59492724Y-79873334D01*
X59491842Y-79873889D01*
X59491744Y-79873734D01*
X59430217Y-79898855D01*
X59417588Y-79899500D01*
X53506670Y-79899500D01*
X53506654Y-79899499D01*
X53499058Y-79899499D01*
X53340943Y-79899499D01*
X53264579Y-79919961D01*
X53188214Y-79940423D01*
X53188209Y-79940426D01*
X53051290Y-80019475D01*
X53051282Y-80019481D01*
X49943530Y-83127233D01*
X49882207Y-83160718D01*
X49823756Y-83159327D01*
X49695413Y-83124938D01*
X49695403Y-83124936D01*
X49460001Y-83104341D01*
X49459999Y-83104341D01*
X49224596Y-83124936D01*
X49224586Y-83124938D01*
X48996344Y-83186094D01*
X48996335Y-83186098D01*
X48782171Y-83285964D01*
X48782169Y-83285965D01*
X48588597Y-83421505D01*
X48421505Y-83588597D01*
X48285965Y-83782169D01*
X48285964Y-83782171D01*
X48186098Y-83996335D01*
X48186094Y-83996344D01*
X48124938Y-84224586D01*
X48124936Y-84224596D01*
X48104341Y-84459999D01*
X24600500Y-84459999D01*
X24600500Y-60999994D01*
X26994357Y-60999994D01*
X26994357Y-61000005D01*
X27014890Y-61247812D01*
X27014892Y-61247824D01*
X27075936Y-61488881D01*
X27175826Y-61716606D01*
X27311833Y-61924782D01*
X27344245Y-61959991D01*
X27480256Y-62107738D01*
X27676491Y-62260474D01*
X27895190Y-62378828D01*
X28130386Y-62459571D01*
X28375665Y-62500500D01*
X28624335Y-62500500D01*
X28869614Y-62459571D01*
X29104810Y-62378828D01*
X29323509Y-62260474D01*
X29519744Y-62107738D01*
X29688164Y-61924785D01*
X29824173Y-61716607D01*
X29842560Y-61674689D01*
X29887517Y-61621204D01*
X29954253Y-61600514D01*
X29956116Y-61600500D01*
X33543884Y-61600500D01*
X33610923Y-61620185D01*
X33656678Y-61672989D01*
X33657440Y-61674689D01*
X33675827Y-61716608D01*
X33811833Y-61924782D01*
X33844245Y-61959991D01*
X33980256Y-62107738D01*
X34176491Y-62260474D01*
X34395190Y-62378828D01*
X34630386Y-62459571D01*
X34875665Y-62500500D01*
X35124335Y-62500500D01*
X35369614Y-62459571D01*
X35604810Y-62378828D01*
X35823509Y-62260474D01*
X36019744Y-62107738D01*
X36188164Y-61924785D01*
X36324173Y-61716607D01*
X36342560Y-61674689D01*
X36387517Y-61621204D01*
X36454253Y-61600514D01*
X36456116Y-61600500D01*
X37319699Y-61600500D01*
X37386738Y-61620185D01*
X37432493Y-61672989D01*
X37437403Y-61685492D01*
X37465186Y-61769334D01*
X37557288Y-61918656D01*
X37681344Y-62042712D01*
X37830666Y-62134814D01*
X37997203Y-62189999D01*
X38099991Y-62200500D01*
X38900008Y-62200499D01*
X38900016Y-62200498D01*
X38900019Y-62200498D01*
X38956302Y-62194748D01*
X39002797Y-62189999D01*
X39169334Y-62134814D01*
X39318656Y-62042712D01*
X39412319Y-61949049D01*
X39473642Y-61915564D01*
X39543334Y-61920548D01*
X39587681Y-61949049D01*
X39681344Y-62042712D01*
X39830666Y-62134814D01*
X39852001Y-62141883D01*
X39909446Y-62181653D01*
X39936271Y-62246167D01*
X39937000Y-62259590D01*
X39937000Y-64236232D01*
X39917315Y-64303271D01*
X39878098Y-64341769D01*
X39796237Y-64392262D01*
X39731342Y-64432289D01*
X39607285Y-64556346D01*
X39605537Y-64559182D01*
X39603829Y-64560717D01*
X39602807Y-64562011D01*
X39602585Y-64561836D01*
X39553589Y-64605905D01*
X39484626Y-64617126D01*
X39420544Y-64589282D01*
X39394463Y-64559182D01*
X39392714Y-64556346D01*
X39268657Y-64432289D01*
X39268656Y-64432288D01*
X39119334Y-64340186D01*
X38952797Y-64285001D01*
X38952795Y-64285000D01*
X38850010Y-64274500D01*
X38074998Y-64274500D01*
X38074980Y-64274501D01*
X37972203Y-64285000D01*
X37972200Y-64285001D01*
X37805668Y-64340185D01*
X37805663Y-64340187D01*
X37656342Y-64432289D01*
X37532289Y-64556342D01*
X37440187Y-64705663D01*
X37440185Y-64705668D01*
X37431831Y-64730880D01*
X37414431Y-64783391D01*
X37404121Y-64814504D01*
X37364348Y-64871949D01*
X37299833Y-64898772D01*
X37286415Y-64899500D01*
X36456116Y-64899500D01*
X36389077Y-64879815D01*
X36343322Y-64827011D01*
X36342560Y-64825311D01*
X36324172Y-64783391D01*
X36188166Y-64575217D01*
X36161013Y-64545721D01*
X36019744Y-64392262D01*
X35823509Y-64239526D01*
X35823507Y-64239525D01*
X35823506Y-64239524D01*
X35604811Y-64121172D01*
X35604802Y-64121169D01*
X35369616Y-64040429D01*
X35124335Y-63999500D01*
X34875665Y-63999500D01*
X34630383Y-64040429D01*
X34395197Y-64121169D01*
X34395188Y-64121172D01*
X34176493Y-64239524D01*
X33980257Y-64392261D01*
X33811833Y-64575217D01*
X33675827Y-64783391D01*
X33657440Y-64825311D01*
X33612483Y-64878796D01*
X33545747Y-64899486D01*
X33543884Y-64899500D01*
X29956116Y-64899500D01*
X29889077Y-64879815D01*
X29843322Y-64827011D01*
X29842560Y-64825311D01*
X29824172Y-64783391D01*
X29688166Y-64575217D01*
X29661013Y-64545721D01*
X29519744Y-64392262D01*
X29323509Y-64239526D01*
X29323507Y-64239525D01*
X29323506Y-64239524D01*
X29104811Y-64121172D01*
X29104802Y-64121169D01*
X28869616Y-64040429D01*
X28624335Y-63999500D01*
X28375665Y-63999500D01*
X28130383Y-64040429D01*
X27895197Y-64121169D01*
X27895188Y-64121172D01*
X27676493Y-64239524D01*
X27480257Y-64392261D01*
X27311833Y-64575217D01*
X27175826Y-64783393D01*
X27075936Y-65011118D01*
X27014892Y-65252175D01*
X27014890Y-65252187D01*
X26994357Y-65499994D01*
X26994357Y-65500005D01*
X27014890Y-65747812D01*
X27014892Y-65747824D01*
X27075936Y-65988881D01*
X27175826Y-66216606D01*
X27311833Y-66424782D01*
X27311836Y-66424785D01*
X27480256Y-66607738D01*
X27676491Y-66760474D01*
X27767031Y-66809472D01*
X27876506Y-66868717D01*
X27895190Y-66878828D01*
X28130386Y-66959571D01*
X28375665Y-67000500D01*
X28624335Y-67000500D01*
X28869614Y-66959571D01*
X29104810Y-66878828D01*
X29323509Y-66760474D01*
X29519744Y-66607738D01*
X29688164Y-66424785D01*
X29824173Y-66216607D01*
X29842560Y-66174689D01*
X29887517Y-66121204D01*
X29954253Y-66100514D01*
X29956116Y-66100500D01*
X33543884Y-66100500D01*
X33610923Y-66120185D01*
X33656678Y-66172989D01*
X33657440Y-66174689D01*
X33675827Y-66216608D01*
X33811833Y-66424782D01*
X33811836Y-66424785D01*
X33980256Y-66607738D01*
X34176491Y-66760474D01*
X34267031Y-66809472D01*
X34376506Y-66868717D01*
X34395190Y-66878828D01*
X34630386Y-66959571D01*
X34875665Y-67000500D01*
X35124335Y-67000500D01*
X35369614Y-66959571D01*
X35604810Y-66878828D01*
X35823509Y-66760474D01*
X36019744Y-66607738D01*
X36188164Y-66424785D01*
X36324173Y-66216607D01*
X36342560Y-66174689D01*
X36387517Y-66121204D01*
X36454253Y-66100514D01*
X36456116Y-66100500D01*
X37286415Y-66100500D01*
X37353454Y-66120185D01*
X37399209Y-66172989D01*
X37404118Y-66185489D01*
X37437215Y-66285368D01*
X37440185Y-66294331D01*
X37440187Y-66294336D01*
X37460997Y-66328075D01*
X37532288Y-66443656D01*
X37656344Y-66567712D01*
X37805666Y-66659814D01*
X37972203Y-66714999D01*
X38074991Y-66725500D01*
X38324902Y-66725499D01*
X38391941Y-66745183D01*
X38412583Y-66761818D01*
X39515139Y-67864374D01*
X39515149Y-67864385D01*
X39519479Y-67868715D01*
X39519480Y-67868716D01*
X39631284Y-67980520D01*
X39631286Y-67980521D01*
X39631290Y-67980524D01*
X39768209Y-68059573D01*
X39768216Y-68059577D01*
X39880019Y-68089534D01*
X39920942Y-68100500D01*
X39920943Y-68100500D01*
X41913331Y-68100500D01*
X41913347Y-68100501D01*
X41920943Y-68100501D01*
X42079054Y-68100501D01*
X42079057Y-68100501D01*
X42231785Y-68059577D01*
X42281904Y-68030639D01*
X42368716Y-67980520D01*
X42480520Y-67868716D01*
X42480520Y-67868714D01*
X42490728Y-67858507D01*
X42490729Y-67858504D01*
X43480520Y-66868716D01*
X43559577Y-66731784D01*
X43560090Y-66729866D01*
X43560965Y-66728431D01*
X43562686Y-66724277D01*
X43563333Y-66724545D01*
X43596448Y-66670207D01*
X43640863Y-66644247D01*
X43669334Y-66634814D01*
X43818656Y-66542712D01*
X43912675Y-66448692D01*
X43973994Y-66415210D01*
X44043686Y-66420194D01*
X44088034Y-66448695D01*
X44181654Y-66542315D01*
X44330875Y-66634356D01*
X44330880Y-66634358D01*
X44497302Y-66689505D01*
X44497309Y-66689506D01*
X44600019Y-66699999D01*
X44749999Y-66699999D01*
X45250000Y-66699999D01*
X45399972Y-66699999D01*
X45399986Y-66699998D01*
X45502697Y-66689505D01*
X45669119Y-66634358D01*
X45669124Y-66634356D01*
X45818345Y-66542315D01*
X45942315Y-66418345D01*
X46034356Y-66269124D01*
X46034358Y-66269119D01*
X46089505Y-66102697D01*
X46089506Y-66102690D01*
X46099999Y-65999986D01*
X46100000Y-65999973D01*
X46100000Y-65750000D01*
X45250000Y-65750000D01*
X45250000Y-66699999D01*
X44749999Y-66699999D01*
X44750000Y-66699998D01*
X44750000Y-65250000D01*
X45250000Y-65250000D01*
X46099999Y-65250000D01*
X46099999Y-65000028D01*
X46099998Y-65000013D01*
X46089505Y-64897302D01*
X46034358Y-64730880D01*
X46034356Y-64730875D01*
X45942315Y-64581654D01*
X45818345Y-64457684D01*
X45669124Y-64365643D01*
X45669119Y-64365641D01*
X45502697Y-64310494D01*
X45502690Y-64310493D01*
X45399986Y-64300000D01*
X45250000Y-64300000D01*
X45250000Y-65250000D01*
X44750000Y-65250000D01*
X44750000Y-64300000D01*
X44600027Y-64300000D01*
X44600012Y-64300001D01*
X44497302Y-64310494D01*
X44330880Y-64365641D01*
X44330875Y-64365643D01*
X44181657Y-64457682D01*
X44088034Y-64551305D01*
X44026710Y-64584789D01*
X43957019Y-64579805D01*
X43912672Y-64551304D01*
X43818657Y-64457289D01*
X43818656Y-64457288D01*
X43725888Y-64400069D01*
X43669336Y-64365187D01*
X43669331Y-64365185D01*
X43667862Y-64364698D01*
X43502797Y-64310001D01*
X43502795Y-64310000D01*
X43400010Y-64299500D01*
X42599998Y-64299500D01*
X42599980Y-64299501D01*
X42497203Y-64310000D01*
X42497200Y-64310001D01*
X42330668Y-64365185D01*
X42330663Y-64365187D01*
X42181342Y-64457289D01*
X42057289Y-64581342D01*
X41965187Y-64730663D01*
X41965185Y-64730668D01*
X41947715Y-64783391D01*
X41910001Y-64897203D01*
X41910001Y-64897204D01*
X41910000Y-64897204D01*
X41899500Y-64999983D01*
X41899500Y-66000001D01*
X41899501Y-66000019D01*
X41910000Y-66102796D01*
X41910001Y-66102799D01*
X41965185Y-66269331D01*
X41965187Y-66269336D01*
X41980604Y-66294331D01*
X42057288Y-66418656D01*
X42057290Y-66418658D01*
X42061766Y-66424319D01*
X42060712Y-66425152D01*
X42090502Y-66479708D01*
X42085518Y-66549400D01*
X42057017Y-66593747D01*
X41787584Y-66863181D01*
X41726261Y-66896666D01*
X41699903Y-66899500D01*
X41239433Y-66899500D01*
X41172394Y-66879815D01*
X41126639Y-66827011D01*
X41116695Y-66757853D01*
X41145720Y-66694297D01*
X41188984Y-66665423D01*
X41187791Y-66662864D01*
X41194326Y-66659816D01*
X41194334Y-66659814D01*
X41343656Y-66567712D01*
X41467712Y-66443656D01*
X41559814Y-66294334D01*
X41614999Y-66127797D01*
X41625500Y-66025009D01*
X41625499Y-64974992D01*
X41621314Y-64934027D01*
X41614999Y-64872203D01*
X41614998Y-64872200D01*
X41600024Y-64827011D01*
X41559814Y-64705666D01*
X41467712Y-64556344D01*
X41343656Y-64432288D01*
X41196902Y-64341770D01*
X41150179Y-64289823D01*
X41138000Y-64236232D01*
X41138000Y-62223347D01*
X41157685Y-62156308D01*
X41196901Y-62117810D01*
X41318656Y-62042712D01*
X41442712Y-61918656D01*
X41534814Y-61769334D01*
X41589999Y-61602797D01*
X41600500Y-61500009D01*
X41600499Y-60499992D01*
X41589999Y-60397203D01*
X41534814Y-60230666D01*
X41442712Y-60081344D01*
X41318656Y-59957288D01*
X41225888Y-59900069D01*
X41169336Y-59865187D01*
X41169331Y-59865185D01*
X41140858Y-59855750D01*
X41099983Y-59842205D01*
X41042539Y-59802433D01*
X41015716Y-59737917D01*
X41028031Y-59669142D01*
X41075574Y-59617942D01*
X41138988Y-59600500D01*
X42199903Y-59600500D01*
X42266942Y-59620185D01*
X42287584Y-59636819D01*
X48169298Y-65518533D01*
X48202783Y-65579856D01*
X48204837Y-65592330D01*
X48214630Y-65679249D01*
X48274210Y-65849521D01*
X48361776Y-65988881D01*
X48370184Y-66002262D01*
X48497738Y-66129816D01*
X48569153Y-66174689D01*
X48635866Y-66216608D01*
X48650478Y-66225789D01*
X48774928Y-66269336D01*
X48820745Y-66285368D01*
X48820750Y-66285369D01*
X48999996Y-66305565D01*
X49000000Y-66305565D01*
X49000004Y-66305565D01*
X49179249Y-66285369D01*
X49179252Y-66285368D01*
X49179255Y-66285368D01*
X49349522Y-66225789D01*
X49502262Y-66129816D01*
X49629816Y-66002262D01*
X49725789Y-65849522D01*
X49785368Y-65679255D01*
X49795162Y-65592330D01*
X49805565Y-65500003D01*
X49805565Y-65499996D01*
X49785369Y-65320750D01*
X49785368Y-65320745D01*
X49725789Y-65150478D01*
X49629816Y-64997738D01*
X49502262Y-64870184D01*
X49413648Y-64814504D01*
X49349521Y-64774210D01*
X49179249Y-64714630D01*
X49092330Y-64704837D01*
X49027916Y-64677770D01*
X49018533Y-64669298D01*
X42987590Y-58638355D01*
X42987588Y-58638352D01*
X42868717Y-58519481D01*
X42868716Y-58519480D01*
X42781904Y-58469360D01*
X42781904Y-58469359D01*
X42781900Y-58469358D01*
X42731785Y-58440423D01*
X42579057Y-58399499D01*
X42420943Y-58399499D01*
X42413347Y-58399499D01*
X42413331Y-58399500D01*
X39586670Y-58399500D01*
X39586654Y-58399499D01*
X39579058Y-58399499D01*
X39420943Y-58399499D01*
X39344579Y-58419961D01*
X39268214Y-58440423D01*
X39268209Y-58440426D01*
X39131290Y-58519475D01*
X39131282Y-58519481D01*
X38019481Y-59631282D01*
X38019479Y-59631285D01*
X37969361Y-59718094D01*
X37969359Y-59718096D01*
X37940425Y-59768209D01*
X37940420Y-59768220D01*
X37939904Y-59770148D01*
X37939025Y-59771589D01*
X37937314Y-59775721D01*
X37936669Y-59775453D01*
X37903535Y-59829805D01*
X37859139Y-59855750D01*
X37830667Y-59865185D01*
X37681342Y-59957289D01*
X37557289Y-60081342D01*
X37465187Y-60230663D01*
X37465185Y-60230668D01*
X37437405Y-60314504D01*
X37397632Y-60371949D01*
X37333116Y-60398772D01*
X37319699Y-60399500D01*
X36456116Y-60399500D01*
X36389077Y-60379815D01*
X36343322Y-60327011D01*
X36342560Y-60325311D01*
X36324172Y-60283391D01*
X36188166Y-60075217D01*
X36166557Y-60051744D01*
X36019744Y-59892262D01*
X35823509Y-59739526D01*
X35823507Y-59739525D01*
X35823506Y-59739524D01*
X35604811Y-59621172D01*
X35604802Y-59621169D01*
X35369616Y-59540429D01*
X35124335Y-59499500D01*
X34875665Y-59499500D01*
X34630383Y-59540429D01*
X34395197Y-59621169D01*
X34395188Y-59621172D01*
X34176493Y-59739524D01*
X33980257Y-59892261D01*
X33811833Y-60075217D01*
X33675827Y-60283391D01*
X33657440Y-60325311D01*
X33612483Y-60378796D01*
X33545747Y-60399486D01*
X33543884Y-60399500D01*
X29956116Y-60399500D01*
X29889077Y-60379815D01*
X29843322Y-60327011D01*
X29842560Y-60325311D01*
X29824172Y-60283391D01*
X29688166Y-60075217D01*
X29666557Y-60051744D01*
X29519744Y-59892262D01*
X29323509Y-59739526D01*
X29323507Y-59739525D01*
X29323506Y-59739524D01*
X29104811Y-59621172D01*
X29104802Y-59621169D01*
X28869616Y-59540429D01*
X28624335Y-59499500D01*
X28375665Y-59499500D01*
X28130383Y-59540429D01*
X27895197Y-59621169D01*
X27895188Y-59621172D01*
X27676493Y-59739524D01*
X27480257Y-59892261D01*
X27311833Y-60075217D01*
X27175826Y-60283393D01*
X27075936Y-60511118D01*
X27014892Y-60752175D01*
X27014890Y-60752187D01*
X26994357Y-60999994D01*
X24600500Y-60999994D01*
X24600500Y-48749994D01*
X27244357Y-48749994D01*
X27244357Y-48750005D01*
X27264890Y-48997812D01*
X27264892Y-48997824D01*
X27325936Y-49238881D01*
X27425826Y-49466606D01*
X27561833Y-49674782D01*
X27561836Y-49674785D01*
X27730256Y-49857738D01*
X27926491Y-50010474D01*
X28145190Y-50128828D01*
X28380386Y-50209571D01*
X28625665Y-50250500D01*
X28874335Y-50250500D01*
X29119614Y-50209571D01*
X29354810Y-50128828D01*
X29573509Y-50010474D01*
X29769744Y-49857738D01*
X29938164Y-49674785D01*
X30074173Y-49466607D01*
X30092560Y-49424689D01*
X30137517Y-49371204D01*
X30204253Y-49350514D01*
X30206116Y-49350500D01*
X33793884Y-49350500D01*
X33860923Y-49370185D01*
X33906678Y-49422989D01*
X33907440Y-49424689D01*
X33925827Y-49466608D01*
X34061833Y-49674782D01*
X34061836Y-49674785D01*
X34230256Y-49857738D01*
X34426491Y-50010474D01*
X34645190Y-50128828D01*
X34880386Y-50209571D01*
X35125665Y-50250500D01*
X35374335Y-50250500D01*
X35619614Y-50209571D01*
X35854810Y-50128828D01*
X36073509Y-50010474D01*
X36269744Y-49857738D01*
X36438164Y-49674785D01*
X36574173Y-49466607D01*
X36592560Y-49424689D01*
X36637517Y-49371204D01*
X36704253Y-49350514D01*
X36706116Y-49350500D01*
X37775501Y-49350500D01*
X37842540Y-49370185D01*
X37888295Y-49422989D01*
X37899501Y-49474500D01*
X37899501Y-49500018D01*
X37910000Y-49602796D01*
X37910001Y-49602799D01*
X37946868Y-49714055D01*
X37965186Y-49769334D01*
X38057288Y-49918656D01*
X38181344Y-50042712D01*
X38330666Y-50134814D01*
X38497203Y-50189999D01*
X38599991Y-50200500D01*
X39400008Y-50200499D01*
X39400016Y-50200498D01*
X39400019Y-50200498D01*
X39456302Y-50194748D01*
X39502797Y-50189999D01*
X39669334Y-50134814D01*
X39818656Y-50042712D01*
X39912319Y-49949049D01*
X39973642Y-49915564D01*
X40043334Y-49920548D01*
X40087681Y-49949049D01*
X40181344Y-50042712D01*
X40330666Y-50134814D01*
X40352001Y-50141883D01*
X40409446Y-50181653D01*
X40436271Y-50246167D01*
X40437000Y-50259590D01*
X40437000Y-52236232D01*
X40417315Y-52303271D01*
X40378098Y-52341769D01*
X40282423Y-52400781D01*
X40231342Y-52432289D01*
X40107285Y-52556346D01*
X40105537Y-52559182D01*
X40103829Y-52560717D01*
X40102807Y-52562011D01*
X40102585Y-52561836D01*
X40053589Y-52605905D01*
X39984626Y-52617126D01*
X39920544Y-52589282D01*
X39894463Y-52559182D01*
X39892714Y-52556346D01*
X39768657Y-52432289D01*
X39768656Y-52432288D01*
X39619334Y-52340186D01*
X39452797Y-52285001D01*
X39452795Y-52285000D01*
X39350010Y-52274500D01*
X38574998Y-52274500D01*
X38574980Y-52274501D01*
X38472203Y-52285000D01*
X38472200Y-52285001D01*
X38305668Y-52340185D01*
X38305663Y-52340187D01*
X38156342Y-52432289D01*
X38032289Y-52556342D01*
X37940187Y-52705663D01*
X37940185Y-52705668D01*
X37931831Y-52730880D01*
X37906959Y-52805940D01*
X37904121Y-52814504D01*
X37864348Y-52871949D01*
X37799833Y-52898772D01*
X37786415Y-52899500D01*
X36805619Y-52899500D01*
X36738580Y-52879815D01*
X36692825Y-52827011D01*
X36685413Y-52805940D01*
X36674063Y-52761119D01*
X36574173Y-52533393D01*
X36524452Y-52457289D01*
X36438166Y-52325217D01*
X36401144Y-52285001D01*
X36269744Y-52142262D01*
X36073509Y-51989526D01*
X36073507Y-51989525D01*
X36073506Y-51989524D01*
X35854811Y-51871172D01*
X35854802Y-51871169D01*
X35619616Y-51790429D01*
X35374335Y-51749500D01*
X35125665Y-51749500D01*
X34880383Y-51790429D01*
X34645197Y-51871169D01*
X34645188Y-51871172D01*
X34426493Y-51989524D01*
X34230257Y-52142261D01*
X34061833Y-52325217D01*
X33925827Y-52533391D01*
X33907440Y-52575311D01*
X33862483Y-52628796D01*
X33795747Y-52649486D01*
X33793884Y-52649500D01*
X30206116Y-52649500D01*
X30139077Y-52629815D01*
X30093322Y-52577011D01*
X30092560Y-52575311D01*
X30074172Y-52533391D01*
X29938166Y-52325217D01*
X29901144Y-52285001D01*
X29769744Y-52142262D01*
X29573509Y-51989526D01*
X29573507Y-51989525D01*
X29573506Y-51989524D01*
X29354811Y-51871172D01*
X29354802Y-51871169D01*
X29119616Y-51790429D01*
X28874335Y-51749500D01*
X28625665Y-51749500D01*
X28380383Y-51790429D01*
X28145197Y-51871169D01*
X28145188Y-51871172D01*
X27926493Y-51989524D01*
X27730257Y-52142261D01*
X27561833Y-52325217D01*
X27425826Y-52533393D01*
X27325936Y-52761118D01*
X27264892Y-53002175D01*
X27264890Y-53002187D01*
X27244357Y-53249994D01*
X27244357Y-53250000D01*
X27264890Y-53497812D01*
X27264892Y-53497824D01*
X27325936Y-53738881D01*
X27425826Y-53966606D01*
X27561833Y-54174782D01*
X27561836Y-54174785D01*
X27730256Y-54357738D01*
X27926491Y-54510474D01*
X28145190Y-54628828D01*
X28380386Y-54709571D01*
X28625665Y-54750500D01*
X28874335Y-54750500D01*
X29119614Y-54709571D01*
X29354810Y-54628828D01*
X29573509Y-54510474D01*
X29769744Y-54357738D01*
X29938164Y-54174785D01*
X30074173Y-53966607D01*
X30092560Y-53924689D01*
X30137517Y-53871204D01*
X30204253Y-53850514D01*
X30206116Y-53850500D01*
X33793884Y-53850500D01*
X33860923Y-53870185D01*
X33906678Y-53922989D01*
X33907440Y-53924689D01*
X33925827Y-53966608D01*
X34061833Y-54174782D01*
X34061836Y-54174785D01*
X34230256Y-54357738D01*
X34426491Y-54510474D01*
X34645190Y-54628828D01*
X34880386Y-54709571D01*
X35125665Y-54750500D01*
X35374335Y-54750500D01*
X35619614Y-54709571D01*
X35854810Y-54628828D01*
X36073509Y-54510474D01*
X36269744Y-54357738D01*
X36438164Y-54174785D01*
X36449995Y-54156675D01*
X36503141Y-54111321D01*
X36553802Y-54100500D01*
X37786415Y-54100500D01*
X37853454Y-54120185D01*
X37899209Y-54172989D01*
X37904118Y-54185489D01*
X37940186Y-54294334D01*
X38032288Y-54443656D01*
X38156344Y-54567712D01*
X38305666Y-54659814D01*
X38356532Y-54676669D01*
X38413977Y-54716442D01*
X38424912Y-54732370D01*
X38458628Y-54790770D01*
X38481979Y-54831215D01*
X38600849Y-54950085D01*
X38600854Y-54950089D01*
X39631284Y-55980520D01*
X39631286Y-55980521D01*
X39631290Y-55980524D01*
X39768209Y-56059573D01*
X39768216Y-56059577D01*
X39920943Y-56100501D01*
X39920945Y-56100501D01*
X40086654Y-56100501D01*
X40086670Y-56100500D01*
X42413331Y-56100500D01*
X42413347Y-56100501D01*
X42420943Y-56100501D01*
X42579054Y-56100501D01*
X42579057Y-56100501D01*
X42731785Y-56059577D01*
X42781904Y-56030639D01*
X42868716Y-55980520D01*
X42980520Y-55868716D01*
X42980520Y-55868714D01*
X42990728Y-55858507D01*
X42990729Y-55858504D01*
X43980520Y-54868716D01*
X44059577Y-54731784D01*
X44060090Y-54729866D01*
X44060965Y-54728431D01*
X44062686Y-54724277D01*
X44063333Y-54724545D01*
X44096448Y-54670207D01*
X44140863Y-54644247D01*
X44169334Y-54634814D01*
X44318656Y-54542712D01*
X44412675Y-54448692D01*
X44473994Y-54415210D01*
X44543686Y-54420194D01*
X44588034Y-54448695D01*
X44681654Y-54542315D01*
X44830875Y-54634356D01*
X44830880Y-54634358D01*
X44997302Y-54689505D01*
X44997309Y-54689506D01*
X45100019Y-54699999D01*
X45249999Y-54699999D01*
X45750000Y-54699999D01*
X45899972Y-54699999D01*
X45899986Y-54699998D01*
X46002697Y-54689505D01*
X46169119Y-54634358D01*
X46169124Y-54634356D01*
X46318345Y-54542315D01*
X46442315Y-54418345D01*
X46534356Y-54269124D01*
X46534358Y-54269119D01*
X46589505Y-54102697D01*
X46589506Y-54102690D01*
X46599999Y-53999986D01*
X46600000Y-53999973D01*
X46600000Y-53750000D01*
X45750000Y-53750000D01*
X45750000Y-54699999D01*
X45249999Y-54699999D01*
X45250000Y-54699998D01*
X45250000Y-53250000D01*
X45750000Y-53250000D01*
X46599999Y-53250000D01*
X46599999Y-53000028D01*
X46599998Y-53000013D01*
X46589505Y-52897302D01*
X46534358Y-52730880D01*
X46534356Y-52730875D01*
X46442315Y-52581654D01*
X46318345Y-52457684D01*
X46169124Y-52365643D01*
X46169119Y-52365641D01*
X46002697Y-52310494D01*
X46002690Y-52310493D01*
X45899986Y-52300000D01*
X45750000Y-52300000D01*
X45750000Y-53250000D01*
X45250000Y-53250000D01*
X45250000Y-52300000D01*
X45100027Y-52300000D01*
X45100012Y-52300001D01*
X44997302Y-52310494D01*
X44830880Y-52365641D01*
X44830875Y-52365643D01*
X44681657Y-52457682D01*
X44588034Y-52551305D01*
X44526710Y-52584789D01*
X44457019Y-52579805D01*
X44412672Y-52551304D01*
X44318657Y-52457289D01*
X44318656Y-52457288D01*
X44169334Y-52365186D01*
X44002797Y-52310001D01*
X44002795Y-52310000D01*
X43900010Y-52299500D01*
X43099998Y-52299500D01*
X43099980Y-52299501D01*
X42997203Y-52310000D01*
X42997200Y-52310001D01*
X42830668Y-52365185D01*
X42830663Y-52365187D01*
X42681342Y-52457289D01*
X42557289Y-52581342D01*
X42465187Y-52730663D01*
X42465185Y-52730668D01*
X42465115Y-52730880D01*
X42410001Y-52897203D01*
X42410001Y-52897204D01*
X42410000Y-52897204D01*
X42399500Y-52999983D01*
X42399500Y-54000001D01*
X42399501Y-54000019D01*
X42410000Y-54102796D01*
X42410001Y-54102799D01*
X42458284Y-54248505D01*
X42465186Y-54269334D01*
X42557288Y-54418656D01*
X42557290Y-54418658D01*
X42561766Y-54424319D01*
X42560712Y-54425152D01*
X42590502Y-54479708D01*
X42585518Y-54549400D01*
X42557017Y-54593747D01*
X42287584Y-54863181D01*
X42226261Y-54896666D01*
X42199903Y-54899500D01*
X41739433Y-54899500D01*
X41672394Y-54879815D01*
X41626639Y-54827011D01*
X41616695Y-54757853D01*
X41645720Y-54694297D01*
X41688984Y-54665423D01*
X41687791Y-54662864D01*
X41694326Y-54659816D01*
X41694334Y-54659814D01*
X41843656Y-54567712D01*
X41967712Y-54443656D01*
X42059814Y-54294334D01*
X42114999Y-54127797D01*
X42125500Y-54025009D01*
X42125499Y-52974992D01*
X42114999Y-52872203D01*
X42059814Y-52705666D01*
X41967712Y-52556344D01*
X41843656Y-52432288D01*
X41696902Y-52341770D01*
X41650179Y-52289823D01*
X41638000Y-52236232D01*
X41638000Y-50223347D01*
X41657685Y-50156308D01*
X41696901Y-50117810D01*
X41818656Y-50042712D01*
X41942712Y-49918656D01*
X42034814Y-49769334D01*
X42089999Y-49602797D01*
X42100500Y-49500009D01*
X42100499Y-48499992D01*
X42089999Y-48397203D01*
X42034814Y-48230666D01*
X41942712Y-48081344D01*
X41818656Y-47957288D01*
X41669334Y-47865186D01*
X41502797Y-47810001D01*
X41502795Y-47810000D01*
X41400010Y-47799500D01*
X40599998Y-47799500D01*
X40599980Y-47799501D01*
X40497203Y-47810000D01*
X40497200Y-47810001D01*
X40330668Y-47865185D01*
X40330663Y-47865187D01*
X40181342Y-47957289D01*
X40087681Y-48050951D01*
X40026358Y-48084436D01*
X39956666Y-48079452D01*
X39912319Y-48050951D01*
X39818657Y-47957289D01*
X39818656Y-47957288D01*
X39669334Y-47865186D01*
X39502797Y-47810001D01*
X39502795Y-47810000D01*
X39400010Y-47799500D01*
X38599998Y-47799500D01*
X38599980Y-47799501D01*
X38497203Y-47810000D01*
X38497200Y-47810001D01*
X38330668Y-47865185D01*
X38330663Y-47865187D01*
X38181342Y-47957289D01*
X38057287Y-48081344D01*
X38051580Y-48090598D01*
X37999632Y-48137322D01*
X37946042Y-48149500D01*
X36706116Y-48149500D01*
X36639077Y-48129815D01*
X36593322Y-48077011D01*
X36592560Y-48075311D01*
X36574172Y-48033391D01*
X36438166Y-47825217D01*
X36414492Y-47799500D01*
X36269744Y-47642262D01*
X36073509Y-47489526D01*
X36073507Y-47489525D01*
X36073506Y-47489524D01*
X35854811Y-47371172D01*
X35854802Y-47371169D01*
X35619616Y-47290429D01*
X35374335Y-47249500D01*
X35125665Y-47249500D01*
X34880383Y-47290429D01*
X34645197Y-47371169D01*
X34645188Y-47371172D01*
X34426493Y-47489524D01*
X34230257Y-47642261D01*
X34061833Y-47825217D01*
X33925827Y-48033391D01*
X33907440Y-48075311D01*
X33862483Y-48128796D01*
X33795747Y-48149486D01*
X33793884Y-48149500D01*
X30206116Y-48149500D01*
X30139077Y-48129815D01*
X30093322Y-48077011D01*
X30092560Y-48075311D01*
X30074172Y-48033391D01*
X29938166Y-47825217D01*
X29914492Y-47799500D01*
X29769744Y-47642262D01*
X29573509Y-47489526D01*
X29573507Y-47489525D01*
X29573506Y-47489524D01*
X29354811Y-47371172D01*
X29354802Y-47371169D01*
X29119616Y-47290429D01*
X28874335Y-47249500D01*
X28625665Y-47249500D01*
X28380383Y-47290429D01*
X28145197Y-47371169D01*
X28145188Y-47371172D01*
X27926493Y-47489524D01*
X27730257Y-47642261D01*
X27561833Y-47825217D01*
X27425826Y-48033393D01*
X27325936Y-48261118D01*
X27264892Y-48502175D01*
X27264890Y-48502187D01*
X27244357Y-48749994D01*
X24600500Y-48749994D01*
X24600500Y-36499994D01*
X26994357Y-36499994D01*
X26994357Y-36500005D01*
X27014890Y-36747812D01*
X27014892Y-36747824D01*
X27075936Y-36988881D01*
X27175826Y-37216606D01*
X27311833Y-37424782D01*
X27339312Y-37454632D01*
X27480256Y-37607738D01*
X27676491Y-37760474D01*
X27895190Y-37878828D01*
X28130386Y-37959571D01*
X28375665Y-38000500D01*
X28624335Y-38000500D01*
X28869614Y-37959571D01*
X29104810Y-37878828D01*
X29323509Y-37760474D01*
X29519744Y-37607738D01*
X29688164Y-37424785D01*
X29824173Y-37216607D01*
X29842560Y-37174689D01*
X29887517Y-37121204D01*
X29954253Y-37100514D01*
X29956116Y-37100500D01*
X33543884Y-37100500D01*
X33610923Y-37120185D01*
X33656678Y-37172989D01*
X33657440Y-37174689D01*
X33675827Y-37216608D01*
X33811833Y-37424782D01*
X33839312Y-37454632D01*
X33980256Y-37607738D01*
X34176491Y-37760474D01*
X34395190Y-37878828D01*
X34630386Y-37959571D01*
X34875665Y-38000500D01*
X35124335Y-38000500D01*
X35369614Y-37959571D01*
X35604810Y-37878828D01*
X35823509Y-37760474D01*
X36019744Y-37607738D01*
X36188164Y-37424785D01*
X36324173Y-37216607D01*
X36342560Y-37174689D01*
X36387517Y-37121204D01*
X36454253Y-37100514D01*
X36456116Y-37100500D01*
X37819699Y-37100500D01*
X37886738Y-37120185D01*
X37932493Y-37172989D01*
X37937405Y-37185496D01*
X37965185Y-37269331D01*
X37965187Y-37269336D01*
X37984851Y-37301216D01*
X38057288Y-37418656D01*
X38181344Y-37542712D01*
X38330666Y-37634814D01*
X38497203Y-37689999D01*
X38599991Y-37700500D01*
X39400008Y-37700499D01*
X39400016Y-37700498D01*
X39400019Y-37700498D01*
X39456302Y-37694748D01*
X39502797Y-37689999D01*
X39669334Y-37634814D01*
X39818656Y-37542712D01*
X39912319Y-37449049D01*
X39973642Y-37415564D01*
X40043334Y-37420548D01*
X40087681Y-37449049D01*
X40181344Y-37542712D01*
X40286769Y-37607738D01*
X40330668Y-37634815D01*
X40351110Y-37641588D01*
X40389502Y-37654310D01*
X40446947Y-37694081D01*
X40473772Y-37758596D01*
X40474500Y-37772016D01*
X40474500Y-39736232D01*
X40454815Y-39803271D01*
X40415598Y-39841769D01*
X40333737Y-39892262D01*
X40268842Y-39932289D01*
X40144785Y-40056346D01*
X40143037Y-40059182D01*
X40141329Y-40060717D01*
X40140307Y-40062011D01*
X40140085Y-40061836D01*
X40091089Y-40105905D01*
X40022126Y-40117126D01*
X39958044Y-40089282D01*
X39931963Y-40059182D01*
X39930214Y-40056346D01*
X39806157Y-39932289D01*
X39806156Y-39932288D01*
X39666014Y-39845848D01*
X39656836Y-39840187D01*
X39656831Y-39840185D01*
X39655362Y-39839698D01*
X39490297Y-39785001D01*
X39490295Y-39785000D01*
X39387510Y-39774500D01*
X38612498Y-39774500D01*
X38612480Y-39774501D01*
X38509703Y-39785000D01*
X38509700Y-39785001D01*
X38343168Y-39840185D01*
X38343163Y-39840187D01*
X38193842Y-39932289D01*
X38069789Y-40056342D01*
X37977687Y-40205663D01*
X37977685Y-40205668D01*
X37969331Y-40230880D01*
X37951931Y-40283391D01*
X37941621Y-40314504D01*
X37901848Y-40371949D01*
X37837333Y-40398772D01*
X37823915Y-40399500D01*
X36456116Y-40399500D01*
X36389077Y-40379815D01*
X36343322Y-40327011D01*
X36342560Y-40325311D01*
X36324172Y-40283391D01*
X36188166Y-40075217D01*
X36166152Y-40051304D01*
X36019744Y-39892262D01*
X35823509Y-39739526D01*
X35823507Y-39739525D01*
X35823506Y-39739524D01*
X35604811Y-39621172D01*
X35604802Y-39621169D01*
X35369616Y-39540429D01*
X35124335Y-39499500D01*
X34875665Y-39499500D01*
X34630383Y-39540429D01*
X34395197Y-39621169D01*
X34395188Y-39621172D01*
X34176493Y-39739524D01*
X33980257Y-39892261D01*
X33811833Y-40075217D01*
X33675827Y-40283391D01*
X33657440Y-40325311D01*
X33612483Y-40378796D01*
X33545747Y-40399486D01*
X33543884Y-40399500D01*
X29956116Y-40399500D01*
X29889077Y-40379815D01*
X29843322Y-40327011D01*
X29842560Y-40325311D01*
X29824172Y-40283391D01*
X29688166Y-40075217D01*
X29666152Y-40051304D01*
X29519744Y-39892262D01*
X29323509Y-39739526D01*
X29323507Y-39739525D01*
X29323506Y-39739524D01*
X29104811Y-39621172D01*
X29104802Y-39621169D01*
X28869616Y-39540429D01*
X28624335Y-39499500D01*
X28375665Y-39499500D01*
X28130383Y-39540429D01*
X27895197Y-39621169D01*
X27895188Y-39621172D01*
X27676493Y-39739524D01*
X27480257Y-39892261D01*
X27311833Y-40075217D01*
X27175826Y-40283393D01*
X27075936Y-40511118D01*
X27014892Y-40752175D01*
X27014890Y-40752187D01*
X26994357Y-40999994D01*
X26994357Y-41000005D01*
X27014890Y-41247812D01*
X27014892Y-41247824D01*
X27075936Y-41488881D01*
X27175826Y-41716606D01*
X27311833Y-41924782D01*
X27311836Y-41924785D01*
X27480256Y-42107738D01*
X27676491Y-42260474D01*
X27676493Y-42260475D01*
X27876506Y-42368717D01*
X27895190Y-42378828D01*
X28130386Y-42459571D01*
X28375665Y-42500500D01*
X28624335Y-42500500D01*
X28869614Y-42459571D01*
X29104810Y-42378828D01*
X29323509Y-42260474D01*
X29519744Y-42107738D01*
X29688164Y-41924785D01*
X29824173Y-41716607D01*
X29842560Y-41674689D01*
X29887517Y-41621204D01*
X29954253Y-41600514D01*
X29956116Y-41600500D01*
X33543884Y-41600500D01*
X33610923Y-41620185D01*
X33656678Y-41672989D01*
X33657440Y-41674689D01*
X33675827Y-41716608D01*
X33811833Y-41924782D01*
X33811836Y-41924785D01*
X33980256Y-42107738D01*
X34176491Y-42260474D01*
X34176493Y-42260475D01*
X34376506Y-42368717D01*
X34395190Y-42378828D01*
X34630386Y-42459571D01*
X34875665Y-42500500D01*
X35124335Y-42500500D01*
X35369614Y-42459571D01*
X35604810Y-42378828D01*
X35823509Y-42260474D01*
X36019744Y-42107738D01*
X36188164Y-41924785D01*
X36324173Y-41716607D01*
X36342560Y-41674689D01*
X36387517Y-41621204D01*
X36454253Y-41600514D01*
X36456116Y-41600500D01*
X37823915Y-41600500D01*
X37890954Y-41620185D01*
X37936709Y-41672989D01*
X37941618Y-41685489D01*
X37977686Y-41794334D01*
X38069788Y-41943656D01*
X38193844Y-42067712D01*
X38343166Y-42159814D01*
X38367495Y-42167876D01*
X38424939Y-42207647D01*
X38435422Y-42225289D01*
X38436361Y-42224748D01*
X38440422Y-42231782D01*
X38440423Y-42231785D01*
X38452813Y-42253245D01*
X38519477Y-42368712D01*
X38519481Y-42368717D01*
X38638349Y-42487585D01*
X38638354Y-42487589D01*
X39631284Y-43480520D01*
X39631286Y-43480521D01*
X39631290Y-43480524D01*
X39768209Y-43559573D01*
X39768216Y-43559577D01*
X39920943Y-43600501D01*
X39920945Y-43600501D01*
X40086654Y-43600501D01*
X40086670Y-43600500D01*
X42913331Y-43600500D01*
X42913347Y-43600501D01*
X42920943Y-43600501D01*
X43079054Y-43600501D01*
X43079057Y-43600501D01*
X43231785Y-43559577D01*
X43281904Y-43530639D01*
X43368716Y-43480520D01*
X43480520Y-43368716D01*
X43480520Y-43368714D01*
X43490728Y-43358507D01*
X43490729Y-43358504D01*
X44480520Y-42368716D01*
X44559577Y-42231784D01*
X44560090Y-42229866D01*
X44560965Y-42228431D01*
X44562686Y-42224277D01*
X44563333Y-42224545D01*
X44596448Y-42170207D01*
X44640863Y-42144247D01*
X44669334Y-42134814D01*
X44818656Y-42042712D01*
X44912675Y-41948692D01*
X44973994Y-41915210D01*
X45043686Y-41920194D01*
X45088034Y-41948695D01*
X45181654Y-42042315D01*
X45330875Y-42134356D01*
X45330880Y-42134358D01*
X45497302Y-42189505D01*
X45497309Y-42189506D01*
X45600019Y-42199999D01*
X45749999Y-42199999D01*
X46250000Y-42199999D01*
X46399972Y-42199999D01*
X46399986Y-42199998D01*
X46502697Y-42189505D01*
X46669119Y-42134358D01*
X46669124Y-42134356D01*
X46818345Y-42042315D01*
X46942315Y-41918345D01*
X47034356Y-41769124D01*
X47034358Y-41769119D01*
X47089505Y-41602697D01*
X47089506Y-41602690D01*
X47099999Y-41499986D01*
X47100000Y-41499973D01*
X47100000Y-41250000D01*
X46250000Y-41250000D01*
X46250000Y-42199999D01*
X45749999Y-42199999D01*
X45750000Y-42199998D01*
X45750000Y-40750000D01*
X46250000Y-40750000D01*
X47099999Y-40750000D01*
X47099999Y-40500028D01*
X47099998Y-40500013D01*
X47089505Y-40397302D01*
X47034358Y-40230880D01*
X47034356Y-40230875D01*
X46942315Y-40081654D01*
X46818345Y-39957684D01*
X46669124Y-39865643D01*
X46669119Y-39865641D01*
X46502697Y-39810494D01*
X46502690Y-39810493D01*
X46399986Y-39800000D01*
X46250000Y-39800000D01*
X46250000Y-40750000D01*
X45750000Y-40750000D01*
X45750000Y-39800000D01*
X45600027Y-39800000D01*
X45600012Y-39800001D01*
X45497302Y-39810494D01*
X45330880Y-39865641D01*
X45330875Y-39865643D01*
X45181657Y-39957682D01*
X45088034Y-40051305D01*
X45026710Y-40084789D01*
X44957019Y-40079805D01*
X44912672Y-40051304D01*
X44818657Y-39957289D01*
X44818656Y-39957288D01*
X44725888Y-39900069D01*
X44669336Y-39865187D01*
X44669331Y-39865185D01*
X44633884Y-39853439D01*
X44502797Y-39810001D01*
X44502795Y-39810000D01*
X44400010Y-39799500D01*
X43599998Y-39799500D01*
X43599980Y-39799501D01*
X43497203Y-39810000D01*
X43497200Y-39810001D01*
X43330668Y-39865185D01*
X43330663Y-39865187D01*
X43181342Y-39957289D01*
X43057289Y-40081342D01*
X42965187Y-40230663D01*
X42965185Y-40230668D01*
X42947715Y-40283391D01*
X42910001Y-40397203D01*
X42910001Y-40397204D01*
X42910000Y-40397204D01*
X42899500Y-40499983D01*
X42899500Y-41500001D01*
X42899501Y-41500019D01*
X42910000Y-41602796D01*
X42910001Y-41602799D01*
X42947714Y-41716607D01*
X42965186Y-41769334D01*
X43057288Y-41918656D01*
X43057290Y-41918658D01*
X43061766Y-41924319D01*
X43060712Y-41925152D01*
X43090502Y-41979708D01*
X43085518Y-42049400D01*
X43057017Y-42093747D01*
X42787584Y-42363181D01*
X42726261Y-42396666D01*
X42699903Y-42399500D01*
X41776933Y-42399500D01*
X41709894Y-42379815D01*
X41664139Y-42327011D01*
X41654195Y-42257853D01*
X41683220Y-42194297D01*
X41726484Y-42165423D01*
X41725291Y-42162864D01*
X41731826Y-42159816D01*
X41731834Y-42159814D01*
X41881156Y-42067712D01*
X42005212Y-41943656D01*
X42097314Y-41794334D01*
X42152499Y-41627797D01*
X42163000Y-41525009D01*
X42162999Y-40474992D01*
X42162419Y-40469318D01*
X42152499Y-40372203D01*
X42152498Y-40372200D01*
X42137524Y-40327011D01*
X42097314Y-40205666D01*
X42005212Y-40056344D01*
X41881156Y-39932288D01*
X41734402Y-39841770D01*
X41687679Y-39789823D01*
X41675500Y-39736232D01*
X41675500Y-37700217D01*
X41695185Y-37633178D01*
X41734405Y-37594678D01*
X41818651Y-37542715D01*
X41818654Y-37542713D01*
X41818653Y-37542713D01*
X41818656Y-37542712D01*
X41942712Y-37418656D01*
X42034814Y-37269334D01*
X42089999Y-37102797D01*
X42100500Y-37000009D01*
X42100499Y-35999992D01*
X42094595Y-35942200D01*
X42089999Y-35897203D01*
X42089998Y-35897200D01*
X42084237Y-35879815D01*
X42034814Y-35730666D01*
X41942712Y-35581344D01*
X41818656Y-35457288D01*
X41725888Y-35400069D01*
X41669336Y-35365187D01*
X41669331Y-35365185D01*
X41667862Y-35364698D01*
X41502797Y-35310001D01*
X41502795Y-35310000D01*
X41400010Y-35299500D01*
X40599998Y-35299500D01*
X40599980Y-35299501D01*
X40497203Y-35310000D01*
X40497200Y-35310001D01*
X40330668Y-35365185D01*
X40330663Y-35365187D01*
X40181342Y-35457289D01*
X40087681Y-35550951D01*
X40026358Y-35584436D01*
X39956666Y-35579452D01*
X39912319Y-35550951D01*
X39818657Y-35457289D01*
X39818656Y-35457288D01*
X39725888Y-35400069D01*
X39669336Y-35365187D01*
X39669331Y-35365185D01*
X39667862Y-35364698D01*
X39502797Y-35310001D01*
X39502795Y-35310000D01*
X39400010Y-35299500D01*
X38599998Y-35299500D01*
X38599980Y-35299501D01*
X38497203Y-35310000D01*
X38497200Y-35310001D01*
X38330668Y-35365185D01*
X38330663Y-35365187D01*
X38181342Y-35457289D01*
X38057289Y-35581342D01*
X37965187Y-35730663D01*
X37965185Y-35730668D01*
X37937405Y-35814504D01*
X37897632Y-35871949D01*
X37833116Y-35898772D01*
X37819699Y-35899500D01*
X36456116Y-35899500D01*
X36389077Y-35879815D01*
X36343322Y-35827011D01*
X36342560Y-35825311D01*
X36324172Y-35783391D01*
X36188166Y-35575217D01*
X36121030Y-35502288D01*
X36019744Y-35392262D01*
X35823509Y-35239526D01*
X35823507Y-35239525D01*
X35823506Y-35239524D01*
X35604811Y-35121172D01*
X35604802Y-35121169D01*
X35369616Y-35040429D01*
X35124335Y-34999500D01*
X34875665Y-34999500D01*
X34630383Y-35040429D01*
X34395197Y-35121169D01*
X34395188Y-35121172D01*
X34176493Y-35239524D01*
X33980257Y-35392261D01*
X33811833Y-35575217D01*
X33675827Y-35783391D01*
X33657440Y-35825311D01*
X33612483Y-35878796D01*
X33545747Y-35899486D01*
X33543884Y-35899500D01*
X29956116Y-35899500D01*
X29889077Y-35879815D01*
X29843322Y-35827011D01*
X29842560Y-35825311D01*
X29824172Y-35783391D01*
X29688166Y-35575217D01*
X29621030Y-35502288D01*
X29519744Y-35392262D01*
X29323509Y-35239526D01*
X29323507Y-35239525D01*
X29323506Y-35239524D01*
X29104811Y-35121172D01*
X29104802Y-35121169D01*
X28869616Y-35040429D01*
X28624335Y-34999500D01*
X28375665Y-34999500D01*
X28130383Y-35040429D01*
X27895197Y-35121169D01*
X27895188Y-35121172D01*
X27676493Y-35239524D01*
X27480257Y-35392261D01*
X27311833Y-35575217D01*
X27175826Y-35783393D01*
X27075936Y-36011118D01*
X27014892Y-36252175D01*
X27014890Y-36252187D01*
X26994357Y-36499994D01*
X24600500Y-36499994D01*
X24600500Y-29499994D01*
X26994357Y-29499994D01*
X26994357Y-29500005D01*
X27014890Y-29747812D01*
X27014892Y-29747824D01*
X27075936Y-29988881D01*
X27175826Y-30216606D01*
X27311833Y-30424782D01*
X27311836Y-30424785D01*
X27480256Y-30607738D01*
X27676491Y-30760474D01*
X27895190Y-30878828D01*
X28130386Y-30959571D01*
X28375665Y-31000500D01*
X28624335Y-31000500D01*
X28869614Y-30959571D01*
X29104810Y-30878828D01*
X29323509Y-30760474D01*
X29519744Y-30607738D01*
X29688164Y-30424785D01*
X29824173Y-30216607D01*
X29842560Y-30174689D01*
X29887517Y-30121204D01*
X29954253Y-30100514D01*
X29956116Y-30100500D01*
X33543884Y-30100500D01*
X33610923Y-30120185D01*
X33656678Y-30172989D01*
X33657440Y-30174689D01*
X33675827Y-30216608D01*
X33811833Y-30424782D01*
X33811836Y-30424785D01*
X33980256Y-30607738D01*
X34176491Y-30760474D01*
X34395190Y-30878828D01*
X34630386Y-30959571D01*
X34875665Y-31000500D01*
X35124335Y-31000500D01*
X35369614Y-30959571D01*
X35604810Y-30878828D01*
X35823509Y-30760474D01*
X35960709Y-30653686D01*
X35995449Y-30626648D01*
X36060443Y-30601005D01*
X36071611Y-30600501D01*
X36086654Y-30600501D01*
X36086670Y-30600500D01*
X38319699Y-30600500D01*
X38386738Y-30620185D01*
X38432493Y-30672989D01*
X38437403Y-30685492D01*
X38465186Y-30769334D01*
X38557288Y-30918656D01*
X38681344Y-31042712D01*
X38830666Y-31134814D01*
X38859134Y-31144247D01*
X38916580Y-31184019D01*
X38937110Y-31224363D01*
X38937314Y-31224279D01*
X38938390Y-31226877D01*
X38939905Y-31229854D01*
X38940421Y-31231781D01*
X38940422Y-31231784D01*
X38940423Y-31231785D01*
X38959871Y-31265470D01*
X39019481Y-31368717D01*
X39138349Y-31487585D01*
X39138354Y-31487589D01*
X40131284Y-32480520D01*
X40131286Y-32480521D01*
X40131290Y-32480524D01*
X40268209Y-32559573D01*
X40268216Y-32559577D01*
X40420943Y-32600501D01*
X40420945Y-32600501D01*
X40586654Y-32600501D01*
X40586670Y-32600500D01*
X50699903Y-32600500D01*
X50766942Y-32620185D01*
X50787584Y-32636819D01*
X51863181Y-33712416D01*
X51896666Y-33773739D01*
X51899500Y-33800097D01*
X51899500Y-62402716D01*
X51899499Y-62402734D01*
X51899499Y-62568440D01*
X51899498Y-62568440D01*
X51940423Y-62721171D01*
X51969358Y-62771286D01*
X51969359Y-62771290D01*
X51969360Y-62771290D01*
X52019479Y-62858100D01*
X52019481Y-62858103D01*
X52138349Y-62976971D01*
X52138355Y-62976976D01*
X55449198Y-66287819D01*
X55482683Y-66349142D01*
X55477699Y-66418834D01*
X55435827Y-66474767D01*
X55370363Y-66499184D01*
X55361517Y-66499500D01*
X53820941Y-66499500D01*
X53781270Y-66510129D01*
X53781271Y-66510130D01*
X53668214Y-66540423D01*
X53668209Y-66540426D01*
X53531290Y-66619475D01*
X53531282Y-66619481D01*
X53419478Y-66731286D01*
X48787584Y-71363181D01*
X48726261Y-71396666D01*
X48699903Y-71399500D01*
X39680301Y-71399500D01*
X39613262Y-71379815D01*
X39567507Y-71327011D01*
X39562595Y-71314504D01*
X39550000Y-71276494D01*
X39534814Y-71230666D01*
X39442712Y-71081344D01*
X39318656Y-70957288D01*
X39169334Y-70865186D01*
X39002797Y-70810001D01*
X39002795Y-70810000D01*
X38900010Y-70799500D01*
X38099998Y-70799500D01*
X38099980Y-70799501D01*
X37997203Y-70810000D01*
X37997200Y-70810001D01*
X37830668Y-70865185D01*
X37830663Y-70865187D01*
X37681342Y-70957289D01*
X37587681Y-71050951D01*
X37526358Y-71084436D01*
X37456666Y-71079452D01*
X37412319Y-71050951D01*
X37318657Y-70957289D01*
X37318656Y-70957288D01*
X37169334Y-70865186D01*
X37002797Y-70810001D01*
X37002795Y-70810000D01*
X36900010Y-70799500D01*
X36099998Y-70799500D01*
X36099980Y-70799501D01*
X35997203Y-70810000D01*
X35997200Y-70810001D01*
X35830668Y-70865185D01*
X35830663Y-70865187D01*
X35681342Y-70957289D01*
X35557289Y-71081342D01*
X35465187Y-71230663D01*
X35465185Y-71230668D01*
X35437405Y-71314504D01*
X35397632Y-71371949D01*
X35333116Y-71398772D01*
X35319699Y-71399500D01*
X34205301Y-71399500D01*
X34138262Y-71379815D01*
X34092507Y-71327011D01*
X34087595Y-71314504D01*
X34075000Y-71276494D01*
X34059814Y-71230666D01*
X33967712Y-71081344D01*
X33843656Y-70957288D01*
X33694334Y-70865186D01*
X33527797Y-70810001D01*
X33527795Y-70810000D01*
X33425010Y-70799500D01*
X32674998Y-70799500D01*
X32674980Y-70799501D01*
X32572203Y-70810000D01*
X32572200Y-70810001D01*
X32405668Y-70865185D01*
X32405663Y-70865187D01*
X32256342Y-70957289D01*
X32132285Y-71081346D01*
X32130537Y-71084182D01*
X32128829Y-71085717D01*
X32127807Y-71087011D01*
X32127585Y-71086836D01*
X32078589Y-71130905D01*
X32009626Y-71142126D01*
X31945544Y-71114282D01*
X31919463Y-71084182D01*
X31917714Y-71081346D01*
X31793657Y-70957289D01*
X31793656Y-70957288D01*
X31644334Y-70865186D01*
X31477797Y-70810001D01*
X31477795Y-70810000D01*
X31375010Y-70799500D01*
X30624998Y-70799500D01*
X30624980Y-70799501D01*
X30522203Y-70810000D01*
X30522200Y-70810001D01*
X30355668Y-70865185D01*
X30355663Y-70865187D01*
X30206342Y-70957289D01*
X30082289Y-71081342D01*
X29990187Y-71230663D01*
X29990186Y-71230666D01*
X29935001Y-71397203D01*
X29935001Y-71397204D01*
X29935000Y-71397204D01*
X29924500Y-71499983D01*
X29924500Y-72174901D01*
X29904815Y-72241940D01*
X29888181Y-72262582D01*
X27981465Y-74169298D01*
X27920142Y-74202783D01*
X27907668Y-74204837D01*
X27820750Y-74214630D01*
X27650478Y-74274210D01*
X27497737Y-74370184D01*
X27370184Y-74497737D01*
X27274211Y-74650476D01*
X27214631Y-74820745D01*
X27214630Y-74820750D01*
X27194435Y-74999996D01*
X27194435Y-75000003D01*
X27214630Y-75179249D01*
X27214631Y-75179254D01*
X27274211Y-75349523D01*
X27370184Y-75502262D01*
X27497738Y-75629816D01*
X27650478Y-75725789D01*
X27820745Y-75785368D01*
X27907669Y-75795161D01*
X27972080Y-75822226D01*
X27981465Y-75830700D01*
X29871479Y-77720714D01*
X29904964Y-77782037D01*
X29901504Y-77847399D01*
X29885001Y-77897201D01*
X29874500Y-77999983D01*
X29874500Y-79000001D01*
X29874501Y-79000019D01*
X29885000Y-79102796D01*
X29885001Y-79102799D01*
X29925000Y-79223505D01*
X29940186Y-79269334D01*
X30032288Y-79418656D01*
X30156344Y-79542712D01*
X30305666Y-79634814D01*
X30472203Y-79689999D01*
X30574991Y-79700500D01*
X31325008Y-79700499D01*
X31325016Y-79700498D01*
X31325019Y-79700498D01*
X31384371Y-79694435D01*
X31427797Y-79689999D01*
X31594334Y-79634814D01*
X31743656Y-79542712D01*
X31867712Y-79418656D01*
X31869461Y-79415819D01*
X31871169Y-79414283D01*
X31872193Y-79412989D01*
X31872414Y-79413163D01*
X31921406Y-79369096D01*
X31990368Y-79357872D01*
X32054451Y-79385713D01*
X32080537Y-79415817D01*
X32082288Y-79418656D01*
X32206344Y-79542712D01*
X32355666Y-79634814D01*
X32522203Y-79689999D01*
X32624991Y-79700500D01*
X33375008Y-79700499D01*
X33375016Y-79700498D01*
X33375019Y-79700498D01*
X33434371Y-79694435D01*
X33477797Y-79689999D01*
X33644334Y-79634814D01*
X33793656Y-79542712D01*
X33917712Y-79418656D01*
X34009814Y-79269334D01*
X34037595Y-79185495D01*
X34077368Y-79128051D01*
X34141884Y-79101228D01*
X34155301Y-79100500D01*
X35319699Y-79100500D01*
X35386738Y-79120185D01*
X35432493Y-79172989D01*
X35437403Y-79185492D01*
X35465186Y-79269334D01*
X35557288Y-79418656D01*
X35681344Y-79542712D01*
X35830666Y-79634814D01*
X35997203Y-79689999D01*
X36099991Y-79700500D01*
X36900008Y-79700499D01*
X36900016Y-79700498D01*
X36900019Y-79700498D01*
X36959371Y-79694435D01*
X37002797Y-79689999D01*
X37169334Y-79634814D01*
X37318656Y-79542712D01*
X37412319Y-79449049D01*
X37473642Y-79415564D01*
X37543334Y-79420548D01*
X37587681Y-79449049D01*
X37681344Y-79542712D01*
X37830666Y-79634814D01*
X37997203Y-79689999D01*
X38099991Y-79700500D01*
X38900008Y-79700499D01*
X38900016Y-79700498D01*
X38900019Y-79700498D01*
X38959371Y-79694435D01*
X39002797Y-79689999D01*
X39169334Y-79634814D01*
X39318656Y-79542712D01*
X39442712Y-79418656D01*
X39534814Y-79269334D01*
X39562595Y-79185495D01*
X39602368Y-79128051D01*
X39666884Y-79101228D01*
X39680301Y-79100500D01*
X42979017Y-79100500D01*
X42979033Y-79100501D01*
X42986629Y-79100501D01*
X43144740Y-79100501D01*
X43144743Y-79100501D01*
X43297471Y-79059577D01*
X43347590Y-79030639D01*
X43434402Y-78980520D01*
X43546206Y-78868716D01*
X43546206Y-78868714D01*
X43556414Y-78858507D01*
X43556415Y-78858504D01*
X54178102Y-68236819D01*
X54239425Y-68203334D01*
X54265783Y-68200500D01*
X55515899Y-68200500D01*
X55582938Y-68220185D01*
X55628693Y-68272989D01*
X55638838Y-68308315D01*
X55638989Y-68309464D01*
X55638991Y-68309472D01*
X55695615Y-68446175D01*
X55695721Y-68446429D01*
X55785964Y-68564036D01*
X55903571Y-68654279D01*
X55903572Y-68654279D01*
X55910019Y-68659226D01*
X55908529Y-68661166D01*
X55948207Y-68702767D01*
X55962000Y-68759603D01*
X55962000Y-76579056D01*
X56002923Y-76731783D01*
X56002926Y-76731790D01*
X56081975Y-76868709D01*
X56081979Y-76868714D01*
X56081980Y-76868716D01*
X56193784Y-76980520D01*
X56193786Y-76980521D01*
X56193790Y-76980524D01*
X56330709Y-77059573D01*
X56330716Y-77059577D01*
X56483443Y-77100500D01*
X56641557Y-77100500D01*
X70687060Y-77100500D01*
X70754099Y-77120185D01*
X70774741Y-77136819D01*
X78801028Y-85163106D01*
X78834513Y-85224429D01*
X78829529Y-85294121D01*
X78787657Y-85350054D01*
X78784471Y-85352362D01*
X78628594Y-85461508D01*
X78461505Y-85628597D01*
X78331575Y-85814158D01*
X78276998Y-85857783D01*
X78207500Y-85864977D01*
X78145145Y-85833454D01*
X78128425Y-85814158D01*
X77998494Y-85628597D01*
X77831402Y-85461506D01*
X77831395Y-85461501D01*
X77637834Y-85325967D01*
X77637830Y-85325965D01*
X77637828Y-85325964D01*
X77423663Y-85226097D01*
X77423659Y-85226096D01*
X77423655Y-85226094D01*
X77195413Y-85164938D01*
X77195403Y-85164936D01*
X76960001Y-85144341D01*
X76959999Y-85144341D01*
X76724596Y-85164936D01*
X76724586Y-85164938D01*
X76496344Y-85226094D01*
X76496335Y-85226098D01*
X76282171Y-85325964D01*
X76282169Y-85325965D01*
X76088597Y-85461505D01*
X75921505Y-85628597D01*
X75791575Y-85814158D01*
X75736998Y-85857783D01*
X75667500Y-85864977D01*
X75605145Y-85833454D01*
X75588425Y-85814158D01*
X75458494Y-85628597D01*
X75291402Y-85461506D01*
X75291395Y-85461501D01*
X75097834Y-85325967D01*
X75097830Y-85325965D01*
X75097828Y-85325964D01*
X74883663Y-85226097D01*
X74883659Y-85226096D01*
X74883655Y-85226094D01*
X74655413Y-85164938D01*
X74655403Y-85164936D01*
X74420001Y-85144341D01*
X74419999Y-85144341D01*
X74184596Y-85164936D01*
X74184586Y-85164938D01*
X73956344Y-85226094D01*
X73956335Y-85226098D01*
X73742171Y-85325964D01*
X73742169Y-85325965D01*
X73548600Y-85461503D01*
X73426673Y-85583430D01*
X73365350Y-85616914D01*
X73295658Y-85611930D01*
X73239725Y-85570058D01*
X73222810Y-85539081D01*
X73173797Y-85407671D01*
X73173793Y-85407664D01*
X73087547Y-85292455D01*
X73087544Y-85292452D01*
X72972335Y-85206206D01*
X72972328Y-85206202D01*
X72837482Y-85155908D01*
X72837483Y-85155908D01*
X72777883Y-85149501D01*
X72777881Y-85149500D01*
X72777873Y-85149500D01*
X72777864Y-85149500D01*
X70982129Y-85149500D01*
X70982123Y-85149501D01*
X70922516Y-85155908D01*
X70787671Y-85206202D01*
X70787664Y-85206206D01*
X70672455Y-85292452D01*
X70672452Y-85292455D01*
X70586206Y-85407664D01*
X70586202Y-85407671D01*
X70535908Y-85542517D01*
X70529501Y-85602116D01*
X70529500Y-85602135D01*
X70529500Y-87397870D01*
X70529501Y-87397876D01*
X70535908Y-87457483D01*
X70586202Y-87592328D01*
X70586206Y-87592335D01*
X70672452Y-87707544D01*
X70672455Y-87707547D01*
X70787664Y-87793793D01*
X70787671Y-87793797D01*
X70922517Y-87844091D01*
X70922516Y-87844091D01*
X70929444Y-87844835D01*
X70982127Y-87850500D01*
X72777872Y-87850499D01*
X72837483Y-87844091D01*
X72972331Y-87793796D01*
X73087546Y-87707546D01*
X73173796Y-87592331D01*
X73222810Y-87460916D01*
X73264681Y-87404984D01*
X73330145Y-87380566D01*
X73398418Y-87395417D01*
X73426673Y-87416569D01*
X73548599Y-87538495D01*
X73645384Y-87606265D01*
X73742165Y-87674032D01*
X73742167Y-87674033D01*
X73742170Y-87674035D01*
X73956337Y-87773903D01*
X74184592Y-87835063D01*
X74361034Y-87850500D01*
X74419999Y-87855659D01*
X74420000Y-87855659D01*
X74420001Y-87855659D01*
X74478966Y-87850500D01*
X74655408Y-87835063D01*
X74883663Y-87773903D01*
X75097830Y-87674035D01*
X75291401Y-87538495D01*
X75458495Y-87371401D01*
X75588425Y-87185842D01*
X75643002Y-87142217D01*
X75712500Y-87135023D01*
X75774855Y-87166546D01*
X75791575Y-87185842D01*
X75921500Y-87371395D01*
X75921505Y-87371401D01*
X76088599Y-87538495D01*
X76185384Y-87606265D01*
X76282165Y-87674032D01*
X76282167Y-87674033D01*
X76282170Y-87674035D01*
X76496337Y-87773903D01*
X76724592Y-87835063D01*
X76901034Y-87850500D01*
X76959999Y-87855659D01*
X76960000Y-87855659D01*
X76960001Y-87855659D01*
X77018966Y-87850500D01*
X77195408Y-87835063D01*
X77423663Y-87773903D01*
X77637830Y-87674035D01*
X77831401Y-87538495D01*
X77998495Y-87371401D01*
X78128425Y-87185842D01*
X78183002Y-87142217D01*
X78252500Y-87135023D01*
X78314855Y-87166546D01*
X78331575Y-87185842D01*
X78461500Y-87371395D01*
X78461505Y-87371401D01*
X78628599Y-87538495D01*
X78725384Y-87606265D01*
X78822165Y-87674032D01*
X78822167Y-87674033D01*
X78822170Y-87674035D01*
X79036337Y-87773903D01*
X79264592Y-87835063D01*
X79441034Y-87850500D01*
X79499999Y-87855659D01*
X79500000Y-87855659D01*
X79500001Y-87855659D01*
X79558966Y-87850500D01*
X79735408Y-87835063D01*
X79963663Y-87773903D01*
X80177830Y-87674035D01*
X80371401Y-87538495D01*
X80538495Y-87371401D01*
X80668425Y-87185842D01*
X80723002Y-87142217D01*
X80792500Y-87135023D01*
X80854855Y-87166546D01*
X80871575Y-87185842D01*
X81001500Y-87371395D01*
X81001505Y-87371401D01*
X81168599Y-87538495D01*
X81265384Y-87606265D01*
X81362165Y-87674032D01*
X81362167Y-87674033D01*
X81362170Y-87674035D01*
X81576337Y-87773903D01*
X81804592Y-87835063D01*
X81981034Y-87850500D01*
X82039999Y-87855659D01*
X82040000Y-87855659D01*
X82040001Y-87855659D01*
X82098966Y-87850500D01*
X82275408Y-87835063D01*
X82503663Y-87773903D01*
X82717830Y-87674035D01*
X82911401Y-87538495D01*
X83078495Y-87371401D01*
X83208425Y-87185842D01*
X83263002Y-87142217D01*
X83332500Y-87135023D01*
X83394855Y-87166546D01*
X83411575Y-87185842D01*
X83541500Y-87371395D01*
X83541505Y-87371401D01*
X83708599Y-87538495D01*
X83805384Y-87606265D01*
X83902165Y-87674032D01*
X83902167Y-87674033D01*
X83902170Y-87674035D01*
X84116337Y-87773903D01*
X84344592Y-87835063D01*
X84521034Y-87850500D01*
X84579999Y-87855659D01*
X84580000Y-87855659D01*
X84580001Y-87855659D01*
X84638966Y-87850500D01*
X84815408Y-87835063D01*
X85043663Y-87773903D01*
X85257830Y-87674035D01*
X85451401Y-87538495D01*
X85618495Y-87371401D01*
X85754035Y-87177830D01*
X85853903Y-86963663D01*
X85915063Y-86735408D01*
X85935659Y-86500000D01*
X85915063Y-86264592D01*
X85853903Y-86036337D01*
X85754035Y-85822171D01*
X85748913Y-85814855D01*
X85618494Y-85628597D01*
X85451402Y-85461506D01*
X85451395Y-85461501D01*
X85257834Y-85325967D01*
X85257830Y-85325965D01*
X85257828Y-85325964D01*
X85043663Y-85226097D01*
X85043659Y-85226096D01*
X85043655Y-85226094D01*
X84815413Y-85164938D01*
X84815403Y-85164936D01*
X84580001Y-85144341D01*
X84579999Y-85144341D01*
X84344596Y-85164936D01*
X84344586Y-85164938D01*
X84116344Y-85226094D01*
X84116335Y-85226098D01*
X83902171Y-85325964D01*
X83902169Y-85325965D01*
X83708597Y-85461505D01*
X83541505Y-85628597D01*
X83411575Y-85814158D01*
X83356998Y-85857783D01*
X83287500Y-85864977D01*
X83225145Y-85833454D01*
X83208425Y-85814158D01*
X83078494Y-85628597D01*
X82911402Y-85461506D01*
X82911395Y-85461501D01*
X82717834Y-85325967D01*
X82717830Y-85325965D01*
X82717828Y-85325964D01*
X82503663Y-85226097D01*
X82503659Y-85226096D01*
X82503655Y-85226094D01*
X82275413Y-85164938D01*
X82275403Y-85164936D01*
X82040001Y-85144341D01*
X82039999Y-85144341D01*
X81804596Y-85164936D01*
X81804583Y-85164939D01*
X81676241Y-85199327D01*
X81606392Y-85197664D01*
X81556468Y-85167233D01*
X71527590Y-75138355D01*
X71527588Y-75138352D01*
X71408717Y-75019481D01*
X71408716Y-75019480D01*
X71321904Y-74969360D01*
X71321904Y-74969359D01*
X71321900Y-74969358D01*
X71271785Y-74940423D01*
X71119057Y-74899499D01*
X70960943Y-74899499D01*
X70953347Y-74899499D01*
X70953331Y-74899500D01*
X59503476Y-74899500D01*
X59436437Y-74879815D01*
X59390682Y-74827011D01*
X59380738Y-74757853D01*
X59409763Y-74694297D01*
X59437504Y-74670506D01*
X59502262Y-74629816D01*
X59629816Y-74502262D01*
X59725789Y-74349522D01*
X59785368Y-74179255D01*
X59805565Y-74000000D01*
X59785368Y-73820745D01*
X59725789Y-73650478D01*
X59629816Y-73497738D01*
X59502262Y-73370184D01*
X59478084Y-73354992D01*
X59431796Y-73302661D01*
X59421146Y-73233607D01*
X59449521Y-73169758D01*
X59478082Y-73145009D01*
X59502262Y-73129816D01*
X59629816Y-73002262D01*
X59725789Y-72849522D01*
X59785368Y-72679255D01*
X59786074Y-72672989D01*
X59805565Y-72500003D01*
X59805565Y-72499996D01*
X59785369Y-72320750D01*
X59785368Y-72320745D01*
X59725788Y-72150476D01*
X59629815Y-71997737D01*
X59502260Y-71870182D01*
X59502258Y-71870181D01*
X59408527Y-71811285D01*
X59362237Y-71758951D01*
X59350500Y-71706292D01*
X59350500Y-69834100D01*
X59370185Y-69767061D01*
X59422989Y-69721306D01*
X59458324Y-69711160D01*
X59459472Y-69711009D01*
X59459477Y-69711007D01*
X59467321Y-69708906D01*
X59468205Y-69712208D01*
X59521925Y-69706392D01*
X59532514Y-69709501D01*
X59532674Y-69708905D01*
X59540524Y-69711008D01*
X59540526Y-69711008D01*
X59540528Y-69711009D01*
X59650599Y-69725500D01*
X59849400Y-69725499D01*
X59849401Y-69725499D01*
X59866087Y-69723302D01*
X59959472Y-69711009D01*
X59959475Y-69711007D01*
X59967326Y-69708905D01*
X59968210Y-69712207D01*
X60021925Y-69706392D01*
X60032514Y-69709501D01*
X60032674Y-69708905D01*
X60040524Y-69711008D01*
X60040526Y-69711008D01*
X60040528Y-69711009D01*
X60150599Y-69725500D01*
X60349400Y-69725499D01*
X60349401Y-69725499D01*
X60366087Y-69723302D01*
X60459472Y-69711009D01*
X60459475Y-69711007D01*
X60467326Y-69708905D01*
X60468210Y-69712207D01*
X60521925Y-69706392D01*
X60532514Y-69709501D01*
X60532674Y-69708905D01*
X60540524Y-69711008D01*
X60540526Y-69711008D01*
X60540528Y-69711009D01*
X60650599Y-69725500D01*
X60787401Y-69725499D01*
X60854441Y-69745183D01*
X60875083Y-69761818D01*
X60977639Y-69864374D01*
X60977649Y-69864385D01*
X60981979Y-69868715D01*
X60981980Y-69868716D01*
X61093784Y-69980520D01*
X61180595Y-70030639D01*
X61180597Y-70030641D01*
X61218651Y-70052611D01*
X61230715Y-70059577D01*
X61383443Y-70100500D01*
X61541557Y-70100500D01*
X65917588Y-70100500D01*
X65984627Y-70120185D01*
X65994903Y-70127555D01*
X65997736Y-70129814D01*
X65997738Y-70129816D01*
X66150478Y-70225789D01*
X66320745Y-70285368D01*
X66320750Y-70285369D01*
X66499996Y-70305565D01*
X66500000Y-70305565D01*
X66500004Y-70305565D01*
X66679249Y-70285369D01*
X66679252Y-70285368D01*
X66679255Y-70285368D01*
X66849522Y-70225789D01*
X67002262Y-70129816D01*
X67129816Y-70002262D01*
X67225789Y-69849522D01*
X67285368Y-69679255D01*
X67305565Y-69500000D01*
X67285368Y-69320745D01*
X67225789Y-69150478D01*
X67129816Y-68997738D01*
X67002262Y-68870184D01*
X66933553Y-68827011D01*
X66849523Y-68774211D01*
X66679254Y-68714631D01*
X66679249Y-68714630D01*
X66500004Y-68694435D01*
X66499996Y-68694435D01*
X66320750Y-68714630D01*
X66320745Y-68714631D01*
X66150476Y-68774211D01*
X65997736Y-68870185D01*
X65994903Y-68872445D01*
X65992724Y-68873334D01*
X65991842Y-68873889D01*
X65991744Y-68873734D01*
X65930217Y-68898855D01*
X65917588Y-68899500D01*
X62126498Y-68899500D01*
X62059459Y-68879815D01*
X62013704Y-68827011D01*
X62003760Y-68757853D01*
X62032785Y-68694297D01*
X62079046Y-68660939D01*
X62096174Y-68653844D01*
X62213679Y-68563679D01*
X62303843Y-68446175D01*
X62360521Y-68309342D01*
X62360522Y-68309339D01*
X62360657Y-68308316D01*
X62361010Y-68307515D01*
X62362625Y-68301492D01*
X62363564Y-68301743D01*
X62388923Y-68244419D01*
X62447247Y-68205947D01*
X62483596Y-68200500D01*
X73448331Y-68200500D01*
X73448347Y-68200501D01*
X73455943Y-68200501D01*
X73614054Y-68200501D01*
X73614057Y-68200501D01*
X73766785Y-68159577D01*
X73830358Y-68122873D01*
X73903716Y-68080520D01*
X74015520Y-67968716D01*
X74015520Y-67968714D01*
X74025724Y-67958511D01*
X74025727Y-67958506D01*
X91980520Y-50003716D01*
X92059577Y-49866784D01*
X92100501Y-49714057D01*
X92100501Y-49555942D01*
X92100501Y-49548347D01*
X92100500Y-49548329D01*
X92100500Y-30124499D01*
X92120185Y-30057460D01*
X92172989Y-30011705D01*
X92224500Y-30000499D01*
X93047871Y-30000499D01*
X93047872Y-30000499D01*
X93107483Y-29994091D01*
X93242331Y-29943796D01*
X93357546Y-29857546D01*
X93443796Y-29742331D01*
X93494091Y-29607483D01*
X93500500Y-29547873D01*
X93500499Y-27999998D01*
X94494390Y-27999998D01*
X94494390Y-28000001D01*
X94514804Y-28285433D01*
X94575628Y-28565037D01*
X94575630Y-28565043D01*
X94575631Y-28565046D01*
X94666995Y-28810001D01*
X94675635Y-28833166D01*
X94812770Y-29084309D01*
X94812775Y-29084317D01*
X94984254Y-29313387D01*
X94984270Y-29313405D01*
X95186594Y-29515729D01*
X95186612Y-29515745D01*
X95415682Y-29687224D01*
X95415690Y-29687229D01*
X95666833Y-29824364D01*
X95666832Y-29824364D01*
X95666836Y-29824365D01*
X95666839Y-29824367D01*
X95934954Y-29924369D01*
X95934960Y-29924370D01*
X95934962Y-29924371D01*
X96214566Y-29985195D01*
X96214568Y-29985195D01*
X96214572Y-29985196D01*
X96468220Y-30003337D01*
X96499999Y-30005610D01*
X96500000Y-30005610D01*
X96500001Y-30005610D01*
X96528595Y-30003564D01*
X96785428Y-29985196D01*
X96975742Y-29943796D01*
X97065037Y-29924371D01*
X97065037Y-29924370D01*
X97065046Y-29924369D01*
X97333161Y-29824367D01*
X97584315Y-29687226D01*
X97813395Y-29515739D01*
X98015739Y-29313395D01*
X98187226Y-29084315D01*
X98324367Y-28833161D01*
X98424369Y-28565046D01*
X98485196Y-28285428D01*
X98505610Y-28000000D01*
X98485196Y-27714572D01*
X98475309Y-27669124D01*
X98424371Y-27434962D01*
X98424370Y-27434960D01*
X98424369Y-27434954D01*
X98324367Y-27166839D01*
X98322403Y-27163243D01*
X98187229Y-26915690D01*
X98187224Y-26915682D01*
X98015745Y-26686612D01*
X98015729Y-26686594D01*
X97813405Y-26484270D01*
X97813387Y-26484254D01*
X97584317Y-26312775D01*
X97584309Y-26312770D01*
X97333166Y-26175635D01*
X97333167Y-26175635D01*
X97131722Y-26100500D01*
X97065046Y-26075631D01*
X97065043Y-26075630D01*
X97065037Y-26075628D01*
X96785433Y-26014804D01*
X96500001Y-25994390D01*
X96499999Y-25994390D01*
X96214566Y-26014804D01*
X95934962Y-26075628D01*
X95666833Y-26175635D01*
X95415690Y-26312770D01*
X95415682Y-26312775D01*
X95186612Y-26484254D01*
X95186594Y-26484270D01*
X94984270Y-26686594D01*
X94984254Y-26686612D01*
X94812775Y-26915682D01*
X94812770Y-26915690D01*
X94675635Y-27166833D01*
X94575628Y-27434962D01*
X94514804Y-27714566D01*
X94494390Y-27999998D01*
X93500499Y-27999998D01*
X93500499Y-26452128D01*
X93494091Y-26392517D01*
X93488985Y-26378828D01*
X93443797Y-26257671D01*
X93443793Y-26257664D01*
X93357547Y-26142455D01*
X93357544Y-26142452D01*
X93242335Y-26056206D01*
X93242328Y-26056202D01*
X93107482Y-26005908D01*
X93107483Y-26005908D01*
X93047883Y-25999501D01*
X93047881Y-25999500D01*
X93047873Y-25999500D01*
X93047864Y-25999500D01*
X89952129Y-25999500D01*
X89952123Y-25999501D01*
X89892516Y-26005908D01*
X89757671Y-26056202D01*
X89757664Y-26056206D01*
X89642455Y-26142452D01*
X89642452Y-26142455D01*
X89556206Y-26257664D01*
X89556202Y-26257671D01*
X89505908Y-26392517D01*
X89502543Y-26423821D01*
X89499501Y-26452123D01*
X89499500Y-26452135D01*
X89499500Y-29547870D01*
X89499501Y-29547876D01*
X89505908Y-29607483D01*
X89556202Y-29742328D01*
X89556206Y-29742335D01*
X89642452Y-29857544D01*
X89642455Y-29857547D01*
X89757664Y-29943793D01*
X89757671Y-29943797D01*
X89892517Y-29994091D01*
X89892516Y-29994091D01*
X89899444Y-29994835D01*
X89952127Y-30000500D01*
X90775500Y-30000499D01*
X90842539Y-30020183D01*
X90888294Y-30072987D01*
X90899500Y-30124499D01*
X90899500Y-49334902D01*
X90879815Y-49401941D01*
X90863181Y-49422583D01*
X73322584Y-66963181D01*
X73261261Y-66996666D01*
X73234903Y-66999500D01*
X62484101Y-66999500D01*
X62417062Y-66979815D01*
X62371307Y-66927011D01*
X62361162Y-66891685D01*
X62361010Y-66890530D01*
X62358906Y-66882679D01*
X62362208Y-66881794D01*
X62356392Y-66828075D01*
X62359501Y-66817485D01*
X62358905Y-66817326D01*
X62361008Y-66809475D01*
X62361008Y-66809474D01*
X62361009Y-66809472D01*
X62375500Y-66699401D01*
X62375499Y-66500600D01*
X62361009Y-66390528D01*
X62361008Y-66390525D01*
X62358905Y-66382674D01*
X62362207Y-66381789D01*
X62356392Y-66328075D01*
X62359501Y-66317485D01*
X62358905Y-66317326D01*
X62361008Y-66309474D01*
X62361007Y-66309474D01*
X62361009Y-66309472D01*
X62368068Y-66255847D01*
X62396334Y-66191952D01*
X62454658Y-66153480D01*
X62524522Y-66152648D01*
X62556978Y-66167039D01*
X62569153Y-66174689D01*
X62650475Y-66225788D01*
X62820745Y-66285368D01*
X62820750Y-66285369D01*
X62999996Y-66305565D01*
X63000000Y-66305565D01*
X63000004Y-66305565D01*
X63179249Y-66285369D01*
X63179252Y-66285368D01*
X63179255Y-66285368D01*
X63349522Y-66225789D01*
X63502262Y-66129816D01*
X63629816Y-66002262D01*
X63725789Y-65849522D01*
X63785368Y-65679255D01*
X63795162Y-65592330D01*
X63805565Y-65500003D01*
X63805565Y-65499996D01*
X63785369Y-65320750D01*
X63785368Y-65320745D01*
X63725788Y-65150475D01*
X63672691Y-65065973D01*
X63653690Y-64998736D01*
X63672691Y-64934027D01*
X63725788Y-64849524D01*
X63733666Y-64827011D01*
X63785368Y-64679255D01*
X63785369Y-64679249D01*
X63805565Y-64500003D01*
X63805565Y-64499996D01*
X63785369Y-64320750D01*
X63785368Y-64320745D01*
X63781781Y-64310493D01*
X63725789Y-64150478D01*
X63629816Y-63997738D01*
X63502262Y-63870184D01*
X63433553Y-63827011D01*
X63349523Y-63774211D01*
X63179254Y-63714631D01*
X63179249Y-63714630D01*
X63000004Y-63694435D01*
X62999996Y-63694435D01*
X62820750Y-63714630D01*
X62820745Y-63714631D01*
X62650476Y-63774211D01*
X62497736Y-63870185D01*
X62494903Y-63872445D01*
X62492724Y-63873334D01*
X62491842Y-63873889D01*
X62491744Y-63873734D01*
X62430217Y-63898855D01*
X62417588Y-63899500D01*
X61499499Y-63899500D01*
X61432460Y-63879815D01*
X61386705Y-63827011D01*
X61375499Y-63775500D01*
X61375499Y-63500596D01*
X61361011Y-63390536D01*
X61361009Y-63390529D01*
X61361009Y-63390528D01*
X61304279Y-63253571D01*
X61214036Y-63135964D01*
X61096429Y-63045721D01*
X61096425Y-63045719D01*
X60959472Y-62988991D01*
X60959470Y-62988990D01*
X60849401Y-62974500D01*
X60650596Y-62974500D01*
X60540531Y-62988989D01*
X60532678Y-62991094D01*
X60531802Y-62987824D01*
X60477853Y-62993567D01*
X60467477Y-62990518D01*
X60467323Y-62991095D01*
X60459470Y-62988990D01*
X60349401Y-62974500D01*
X60150596Y-62974500D01*
X60040531Y-62988989D01*
X60032678Y-62991094D01*
X60031802Y-62987824D01*
X59977853Y-62993567D01*
X59967477Y-62990518D01*
X59967323Y-62991095D01*
X59959470Y-62988990D01*
X59849401Y-62974500D01*
X59650596Y-62974500D01*
X59540531Y-62988989D01*
X59532678Y-62991094D01*
X59531802Y-62987824D01*
X59477853Y-62993567D01*
X59467477Y-62990518D01*
X59467323Y-62991095D01*
X59459470Y-62988990D01*
X59349401Y-62974500D01*
X59150596Y-62974500D01*
X59040531Y-62988989D01*
X59032678Y-62991094D01*
X59031802Y-62987824D01*
X58977853Y-62993567D01*
X58967477Y-62990518D01*
X58967323Y-62991095D01*
X58959470Y-62988990D01*
X58849401Y-62974500D01*
X58650596Y-62974500D01*
X58540531Y-62988989D01*
X58532678Y-62991094D01*
X58531802Y-62987824D01*
X58477853Y-62993567D01*
X58467477Y-62990518D01*
X58467323Y-62991095D01*
X58459470Y-62988990D01*
X58349401Y-62974500D01*
X58150596Y-62974500D01*
X58040531Y-62988989D01*
X58032678Y-62991094D01*
X58031802Y-62987824D01*
X57977853Y-62993567D01*
X57967477Y-62990518D01*
X57967323Y-62991095D01*
X57959470Y-62988990D01*
X57849401Y-62974500D01*
X57650596Y-62974500D01*
X57540531Y-62988989D01*
X57532678Y-62991094D01*
X57531802Y-62987824D01*
X57477853Y-62993567D01*
X57467477Y-62990518D01*
X57467323Y-62991095D01*
X57459470Y-62988990D01*
X57349401Y-62974500D01*
X57150596Y-62974500D01*
X57040536Y-62988988D01*
X57040527Y-62988991D01*
X56903574Y-63045719D01*
X56785964Y-63135964D01*
X56695719Y-63253574D01*
X56638991Y-63390527D01*
X56638990Y-63390529D01*
X56624500Y-63500598D01*
X56624500Y-63862638D01*
X56604815Y-63929677D01*
X56552011Y-63975432D01*
X56482853Y-63985376D01*
X56460133Y-63975000D01*
X56150622Y-63975000D01*
X56040658Y-63989478D01*
X56040657Y-63989478D01*
X55903824Y-64046156D01*
X55786320Y-64136320D01*
X55696156Y-64253824D01*
X55639478Y-64390657D01*
X55639478Y-64390658D01*
X55627046Y-64485083D01*
X55598779Y-64548979D01*
X55540454Y-64587449D01*
X55470589Y-64588280D01*
X55416426Y-64556577D01*
X53136819Y-62276970D01*
X53103334Y-62215647D01*
X53100500Y-62189289D01*
X53100500Y-37619983D01*
X57207000Y-37619983D01*
X57207000Y-38395001D01*
X57207001Y-38395019D01*
X57217500Y-38497796D01*
X57217501Y-38497799D01*
X57272685Y-38664331D01*
X57272687Y-38664336D01*
X57282650Y-38680489D01*
X57364788Y-38813656D01*
X57488844Y-38937712D01*
X57638166Y-39029814D01*
X57804703Y-39084999D01*
X57907491Y-39095500D01*
X58957508Y-39095499D01*
X58957516Y-39095498D01*
X58957519Y-39095498D01*
X59013802Y-39089748D01*
X59060297Y-39084999D01*
X59226834Y-39029814D01*
X59376156Y-38937712D01*
X59500212Y-38813656D01*
X59590729Y-38666902D01*
X59642677Y-38620179D01*
X59696268Y-38608000D01*
X62408000Y-38608000D01*
X62475039Y-38627685D01*
X62520794Y-38680489D01*
X62532000Y-38732000D01*
X62532000Y-39490528D01*
X62532001Y-39490534D01*
X62542613Y-39609915D01*
X62598589Y-39805545D01*
X62598590Y-39805548D01*
X62598591Y-39805549D01*
X62692802Y-39985907D01*
X62713717Y-40011557D01*
X62821390Y-40143609D01*
X62870956Y-40184024D01*
X62979093Y-40272198D01*
X63159451Y-40366409D01*
X63355082Y-40422386D01*
X63474463Y-40433000D01*
X65532401Y-40432999D01*
X65599440Y-40452684D01*
X65620082Y-40469318D01*
X67563784Y-42413020D01*
X67563786Y-42413021D01*
X67563790Y-42413024D01*
X67692944Y-42487590D01*
X67700716Y-42492077D01*
X67853443Y-42533001D01*
X67853445Y-42533001D01*
X68019154Y-42533001D01*
X68019170Y-42533000D01*
X68531591Y-42533000D01*
X68598630Y-42552685D01*
X68644385Y-42605489D01*
X68648633Y-42616045D01*
X68706711Y-42782022D01*
X68802684Y-42934762D01*
X68930238Y-43062316D01*
X69082978Y-43158289D01*
X69253245Y-43217868D01*
X69253250Y-43217869D01*
X69432496Y-43238065D01*
X69432500Y-43238065D01*
X69432504Y-43238065D01*
X69611749Y-43217869D01*
X69611752Y-43217868D01*
X69611755Y-43217868D01*
X69782022Y-43158289D01*
X69934762Y-43062316D01*
X70062316Y-42934762D01*
X70158289Y-42782022D01*
X70217868Y-42611755D01*
X70227661Y-42524829D01*
X70254726Y-42460418D01*
X70263190Y-42451043D01*
X72291006Y-40423228D01*
X72291011Y-40423224D01*
X72301214Y-40413020D01*
X72301216Y-40413020D01*
X72413020Y-40301216D01*
X72480681Y-40184023D01*
X72492077Y-40164285D01*
X72533001Y-40011557D01*
X72533001Y-39853443D01*
X72533001Y-39845848D01*
X72533000Y-39845830D01*
X72533000Y-39683585D01*
X72552685Y-39616546D01*
X72605489Y-39570791D01*
X72617989Y-39565881D01*
X72726834Y-39529814D01*
X72876156Y-39437712D01*
X73000212Y-39313656D01*
X73092314Y-39164334D01*
X73147499Y-38997797D01*
X73158000Y-38895009D01*
X73157999Y-38119992D01*
X73147499Y-38017203D01*
X73092314Y-37850666D01*
X73000212Y-37701344D01*
X72876156Y-37577288D01*
X72873319Y-37575538D01*
X72871783Y-37573830D01*
X72870489Y-37572807D01*
X72870663Y-37572585D01*
X72826596Y-37523594D01*
X72815372Y-37454632D01*
X72843213Y-37390549D01*
X72873317Y-37364462D01*
X72876156Y-37362712D01*
X73000212Y-37238656D01*
X73092314Y-37089334D01*
X73147499Y-36922797D01*
X73158000Y-36820009D01*
X73157999Y-36044992D01*
X73147499Y-35942203D01*
X73092314Y-35775666D01*
X73000212Y-35626344D01*
X72876156Y-35502288D01*
X72726834Y-35410186D01*
X72665801Y-35389961D01*
X72617995Y-35374120D01*
X72560550Y-35334347D01*
X72533728Y-35269831D01*
X72533000Y-35256414D01*
X72533000Y-29853445D01*
X72533000Y-29853443D01*
X72492077Y-29700716D01*
X72492077Y-29700715D01*
X72438249Y-29607483D01*
X72438248Y-29607481D01*
X72413022Y-29563787D01*
X72413021Y-29563786D01*
X72413020Y-29563784D01*
X72301216Y-29451980D01*
X72301215Y-29451979D01*
X72296885Y-29447649D01*
X72296874Y-29447639D01*
X71696913Y-28847678D01*
X71663428Y-28786355D01*
X71668411Y-28716667D01*
X71673973Y-28701757D01*
X71681655Y-28681163D01*
X71723528Y-28625230D01*
X71788993Y-28600816D01*
X71797835Y-28600500D01*
X75375501Y-28600500D01*
X75442540Y-28620185D01*
X75488295Y-28672989D01*
X75499501Y-28724500D01*
X75499501Y-29547876D01*
X75505908Y-29607483D01*
X75556202Y-29742328D01*
X75556206Y-29742335D01*
X75642452Y-29857544D01*
X75642455Y-29857547D01*
X75757664Y-29943793D01*
X75757671Y-29943797D01*
X75892517Y-29994091D01*
X75892516Y-29994091D01*
X75899444Y-29994835D01*
X75952127Y-30000500D01*
X79047872Y-30000499D01*
X79107483Y-29994091D01*
X79242331Y-29943796D01*
X79357546Y-29857546D01*
X79443796Y-29742331D01*
X79494091Y-29607483D01*
X79500500Y-29547873D01*
X79500499Y-27999998D01*
X80494390Y-27999998D01*
X80494390Y-28000001D01*
X80514804Y-28285433D01*
X80575628Y-28565037D01*
X80575630Y-28565043D01*
X80575631Y-28565046D01*
X80666995Y-28810001D01*
X80675635Y-28833166D01*
X80812770Y-29084309D01*
X80812775Y-29084317D01*
X80984254Y-29313387D01*
X80984270Y-29313405D01*
X81186594Y-29515729D01*
X81186612Y-29515745D01*
X81415682Y-29687224D01*
X81415690Y-29687229D01*
X81666833Y-29824364D01*
X81666832Y-29824364D01*
X81666836Y-29824365D01*
X81666839Y-29824367D01*
X81934954Y-29924369D01*
X81934960Y-29924370D01*
X81934962Y-29924371D01*
X82214566Y-29985195D01*
X82214568Y-29985195D01*
X82214572Y-29985196D01*
X82468220Y-30003337D01*
X82499999Y-30005610D01*
X82500000Y-30005610D01*
X82500001Y-30005610D01*
X82528595Y-30003564D01*
X82785428Y-29985196D01*
X82975742Y-29943796D01*
X83065037Y-29924371D01*
X83065037Y-29924370D01*
X83065046Y-29924369D01*
X83333161Y-29824367D01*
X83584315Y-29687226D01*
X83813395Y-29515739D01*
X84015739Y-29313395D01*
X84187226Y-29084315D01*
X84324367Y-28833161D01*
X84424369Y-28565046D01*
X84485196Y-28285428D01*
X84505610Y-28000000D01*
X84485196Y-27714572D01*
X84475309Y-27669124D01*
X84424371Y-27434962D01*
X84424370Y-27434960D01*
X84424369Y-27434954D01*
X84324367Y-27166839D01*
X84322403Y-27163243D01*
X84187229Y-26915690D01*
X84187224Y-26915682D01*
X84015745Y-26686612D01*
X84015729Y-26686594D01*
X83813405Y-26484270D01*
X83813387Y-26484254D01*
X83584317Y-26312775D01*
X83584309Y-26312770D01*
X83333166Y-26175635D01*
X83333167Y-26175635D01*
X83131722Y-26100500D01*
X83065046Y-26075631D01*
X83065043Y-26075630D01*
X83065037Y-26075628D01*
X82785433Y-26014804D01*
X82500001Y-25994390D01*
X82499999Y-25994390D01*
X82214566Y-26014804D01*
X81934962Y-26075628D01*
X81666833Y-26175635D01*
X81415690Y-26312770D01*
X81415682Y-26312775D01*
X81186612Y-26484254D01*
X81186594Y-26484270D01*
X80984270Y-26686594D01*
X80984254Y-26686612D01*
X80812775Y-26915682D01*
X80812770Y-26915690D01*
X80675635Y-27166833D01*
X80575628Y-27434962D01*
X80514804Y-27714566D01*
X80494390Y-27999998D01*
X79500499Y-27999998D01*
X79500499Y-26452128D01*
X79494091Y-26392517D01*
X79488985Y-26378828D01*
X79443797Y-26257671D01*
X79443793Y-26257664D01*
X79357547Y-26142455D01*
X79357544Y-26142452D01*
X79242335Y-26056206D01*
X79242328Y-26056202D01*
X79107482Y-26005908D01*
X79107483Y-26005908D01*
X79047883Y-25999501D01*
X79047881Y-25999500D01*
X79047873Y-25999500D01*
X79047864Y-25999500D01*
X75952129Y-25999500D01*
X75952123Y-25999501D01*
X75892516Y-26005908D01*
X75757671Y-26056202D01*
X75757664Y-26056206D01*
X75642455Y-26142452D01*
X75642452Y-26142455D01*
X75556206Y-26257664D01*
X75556202Y-26257671D01*
X75505908Y-26392517D01*
X75502543Y-26423821D01*
X75499501Y-26452123D01*
X75499500Y-26452135D01*
X75499500Y-27275500D01*
X75479815Y-27342539D01*
X75427011Y-27388294D01*
X75375500Y-27399500D01*
X71848187Y-27399500D01*
X71781148Y-27379815D01*
X71735393Y-27327011D01*
X71732012Y-27318851D01*
X71665672Y-27140987D01*
X71665670Y-27140984D01*
X71665669Y-27140980D01*
X71535390Y-26902392D01*
X71535389Y-26902391D01*
X71535387Y-26902387D01*
X71372471Y-26684758D01*
X71372466Y-26684753D01*
X71372461Y-26684747D01*
X71180252Y-26492538D01*
X71180246Y-26492533D01*
X71180242Y-26492529D01*
X70962613Y-26329613D01*
X70962608Y-26329610D01*
X70962607Y-26329609D01*
X70724018Y-26199330D01*
X70724019Y-26199330D01*
X70660484Y-26175633D01*
X70469301Y-26104325D01*
X70469294Y-26104323D01*
X70469293Y-26104323D01*
X70203667Y-26046540D01*
X70203660Y-26046539D01*
X69932501Y-26027145D01*
X69932499Y-26027145D01*
X69661339Y-26046539D01*
X69661332Y-26046540D01*
X69395706Y-26104323D01*
X69395702Y-26104324D01*
X69395699Y-26104325D01*
X69293477Y-26142452D01*
X69140980Y-26199330D01*
X68902392Y-26329609D01*
X68902391Y-26329610D01*
X68684759Y-26492528D01*
X68684747Y-26492538D01*
X68492538Y-26684747D01*
X68492528Y-26684759D01*
X68329610Y-26902391D01*
X68329609Y-26902392D01*
X68199330Y-27140980D01*
X68168534Y-27223549D01*
X68104325Y-27395699D01*
X68104324Y-27395702D01*
X68104323Y-27395706D01*
X68046540Y-27661332D01*
X68046539Y-27661339D01*
X68027145Y-27932498D01*
X68027145Y-27932501D01*
X68046539Y-28203660D01*
X68046540Y-28203667D01*
X68054341Y-28239526D01*
X68104325Y-28469301D01*
X68143829Y-28575215D01*
X68199330Y-28724019D01*
X68329609Y-28962607D01*
X68329610Y-28962608D01*
X68329613Y-28962613D01*
X68492529Y-29180242D01*
X68492533Y-29180246D01*
X68492538Y-29180252D01*
X68684747Y-29372461D01*
X68684753Y-29372466D01*
X68684758Y-29372471D01*
X68902387Y-29535387D01*
X68902391Y-29535389D01*
X68902391Y-29535390D01*
X69130856Y-29660140D01*
X69180261Y-29709545D01*
X69195113Y-29777818D01*
X69170696Y-29843282D01*
X69159110Y-29856653D01*
X67899672Y-31116091D01*
X67838349Y-31149576D01*
X67782067Y-31148745D01*
X67726395Y-31134901D01*
X67726392Y-31134900D01*
X67726389Y-31134900D01*
X67683623Y-31132000D01*
X67683620Y-31132000D01*
X66781377Y-31132000D01*
X66781374Y-31132001D01*
X66738613Y-31134899D01*
X66738612Y-31134899D01*
X66553803Y-31180860D01*
X66383207Y-31265467D01*
X66383204Y-31265469D01*
X66234778Y-31384777D01*
X66234777Y-31384778D01*
X66179147Y-31453986D01*
X66121804Y-31493905D01*
X66051982Y-31496485D01*
X65991849Y-31460906D01*
X65985853Y-31453986D01*
X65930222Y-31384778D01*
X65930221Y-31384777D01*
X65781795Y-31265469D01*
X65781792Y-31265467D01*
X65611197Y-31180860D01*
X65426392Y-31134900D01*
X65405006Y-31133450D01*
X65383623Y-31132000D01*
X65383620Y-31132000D01*
X64481377Y-31132000D01*
X64481374Y-31132001D01*
X64438613Y-31134899D01*
X64438612Y-31134899D01*
X64253803Y-31180860D01*
X64083207Y-31265467D01*
X64083204Y-31265469D01*
X63940952Y-31379815D01*
X63934778Y-31384778D01*
X63934493Y-31385133D01*
X63878826Y-31454385D01*
X63821482Y-31494303D01*
X63751660Y-31496883D01*
X63691527Y-31461304D01*
X63685531Y-31454384D01*
X63629864Y-31385130D01*
X63481525Y-31265892D01*
X63481522Y-31265890D01*
X63311023Y-31181331D01*
X63126324Y-31135397D01*
X63083597Y-31132500D01*
X62882500Y-31132500D01*
X62882500Y-34132500D01*
X63083597Y-34132500D01*
X63126324Y-34129602D01*
X63311023Y-34083668D01*
X63481522Y-33999109D01*
X63481525Y-33999107D01*
X63629866Y-33879867D01*
X63629867Y-33879866D01*
X63685533Y-33810615D01*
X63742876Y-33770696D01*
X63812698Y-33768116D01*
X63872831Y-33803694D01*
X63878805Y-33810589D01*
X63934778Y-33880222D01*
X63934780Y-33880224D01*
X64083204Y-33999530D01*
X64083207Y-33999532D01*
X64259830Y-34087128D01*
X64258881Y-34089039D01*
X64306897Y-34124613D01*
X64331639Y-34189956D01*
X64332000Y-34199415D01*
X64332000Y-36632402D01*
X64312315Y-36699441D01*
X64295681Y-36720083D01*
X63645084Y-37370681D01*
X63583761Y-37404166D01*
X63557403Y-37407000D01*
X59696268Y-37407000D01*
X59629229Y-37387315D01*
X59590729Y-37348097D01*
X59500212Y-37201344D01*
X59376156Y-37077288D01*
X59372842Y-37075243D01*
X59371046Y-37073248D01*
X59370489Y-37072807D01*
X59370564Y-37072711D01*
X59326118Y-37023297D01*
X59314897Y-36954334D01*
X59342740Y-36890252D01*
X59372848Y-36864165D01*
X59375842Y-36862318D01*
X59499815Y-36738345D01*
X59591856Y-36589124D01*
X59591858Y-36589119D01*
X59647005Y-36422697D01*
X59647006Y-36422690D01*
X59657499Y-36319986D01*
X59657500Y-36319973D01*
X59657500Y-36182500D01*
X57207501Y-36182500D01*
X57207501Y-36319986D01*
X57217994Y-36422697D01*
X57273141Y-36589119D01*
X57273143Y-36589124D01*
X57365184Y-36738345D01*
X57489155Y-36862316D01*
X57489159Y-36862319D01*
X57492156Y-36864168D01*
X57493779Y-36865972D01*
X57494823Y-36866798D01*
X57494681Y-36866976D01*
X57538881Y-36916116D01*
X57550102Y-36985079D01*
X57522259Y-37049161D01*
X57492161Y-37075241D01*
X57488849Y-37077283D01*
X57488843Y-37077288D01*
X57364789Y-37201342D01*
X57272687Y-37350663D01*
X57272685Y-37350668D01*
X57251181Y-37415564D01*
X57217501Y-37517203D01*
X57217501Y-37517204D01*
X57217500Y-37517204D01*
X57207000Y-37619983D01*
X53100500Y-37619983D01*
X53100500Y-35545013D01*
X57207500Y-35545013D01*
X57207500Y-35682500D01*
X58182500Y-35682500D01*
X58682500Y-35682500D01*
X59657499Y-35682500D01*
X59657499Y-35545028D01*
X59657498Y-35545013D01*
X59647005Y-35442302D01*
X59591858Y-35275880D01*
X59591856Y-35275875D01*
X59499815Y-35126654D01*
X59375845Y-35002684D01*
X59226624Y-34910643D01*
X59226619Y-34910641D01*
X59060197Y-34855494D01*
X59060190Y-34855493D01*
X58957486Y-34845000D01*
X58682500Y-34845000D01*
X58682500Y-35682500D01*
X58182500Y-35682500D01*
X58182500Y-34845000D01*
X57907529Y-34845000D01*
X57907512Y-34845001D01*
X57804802Y-34855494D01*
X57638380Y-34910641D01*
X57638375Y-34910643D01*
X57489154Y-35002684D01*
X57365184Y-35126654D01*
X57273143Y-35275875D01*
X57273141Y-35275880D01*
X57217994Y-35442302D01*
X57217993Y-35442309D01*
X57207500Y-35545013D01*
X53100500Y-35545013D01*
X53100500Y-33420945D01*
X53100500Y-33420943D01*
X53077095Y-33333596D01*
X61382500Y-33333596D01*
X61385397Y-33376324D01*
X61431331Y-33561023D01*
X61515890Y-33731522D01*
X61515892Y-33731525D01*
X61635132Y-33879866D01*
X61635133Y-33879867D01*
X61783474Y-33999107D01*
X61783477Y-33999109D01*
X61953976Y-34083668D01*
X62138675Y-34129602D01*
X62181403Y-34132500D01*
X62382500Y-34132500D01*
X62382500Y-32882500D01*
X61382500Y-32882500D01*
X61382500Y-33333596D01*
X53077095Y-33333596D01*
X53059577Y-33268216D01*
X53059573Y-33268209D01*
X52980524Y-33131290D01*
X52980521Y-33131286D01*
X52980520Y-33131284D01*
X52868716Y-33019480D01*
X52868715Y-33019479D01*
X52864385Y-33015149D01*
X52864374Y-33015139D01*
X51780638Y-31931403D01*
X61382500Y-31931403D01*
X61382500Y-32382500D01*
X62382500Y-32382500D01*
X62382500Y-31132500D01*
X62181403Y-31132500D01*
X62138675Y-31135397D01*
X61953976Y-31181331D01*
X61783477Y-31265890D01*
X61783474Y-31265892D01*
X61635133Y-31385132D01*
X61635132Y-31385133D01*
X61515892Y-31533474D01*
X61515890Y-31533477D01*
X61431331Y-31703976D01*
X61385397Y-31888675D01*
X61382500Y-31931403D01*
X51780638Y-31931403D01*
X51487590Y-31638355D01*
X51487588Y-31638352D01*
X51368717Y-31519481D01*
X51368716Y-31519480D01*
X51281904Y-31469360D01*
X51281904Y-31469359D01*
X51281900Y-31469358D01*
X51231785Y-31440423D01*
X51079057Y-31399499D01*
X50920943Y-31399499D01*
X50913347Y-31399499D01*
X50913331Y-31399500D01*
X42137400Y-31399500D01*
X42070361Y-31379815D01*
X42024606Y-31327011D01*
X42014662Y-31257853D01*
X42043687Y-31194297D01*
X42098396Y-31157794D01*
X42169119Y-31134358D01*
X42169124Y-31134356D01*
X42318345Y-31042315D01*
X42442315Y-30918345D01*
X42534356Y-30769124D01*
X42534358Y-30769119D01*
X42589505Y-30602697D01*
X42589506Y-30602690D01*
X42599999Y-30499986D01*
X42600000Y-30499973D01*
X42600000Y-30250000D01*
X41374000Y-30250000D01*
X41306961Y-30230315D01*
X41261206Y-30177511D01*
X41250000Y-30126000D01*
X41250000Y-29750000D01*
X41750000Y-29750000D01*
X42599999Y-29750000D01*
X42599999Y-29500028D01*
X42599998Y-29500013D01*
X42589505Y-29397302D01*
X42534358Y-29230880D01*
X42534356Y-29230875D01*
X42442315Y-29081654D01*
X42318345Y-28957684D01*
X42169124Y-28865643D01*
X42169119Y-28865641D01*
X42002697Y-28810494D01*
X42002690Y-28810493D01*
X41899986Y-28800000D01*
X41750000Y-28800000D01*
X41750000Y-29750000D01*
X41250000Y-29750000D01*
X41250000Y-28800000D01*
X41100027Y-28800000D01*
X41100012Y-28800001D01*
X40997302Y-28810494D01*
X40830880Y-28865641D01*
X40830875Y-28865643D01*
X40681657Y-28957682D01*
X40588034Y-29051305D01*
X40526710Y-29084789D01*
X40457019Y-29079805D01*
X40412672Y-29051304D01*
X40318657Y-28957289D01*
X40318656Y-28957288D01*
X40193052Y-28879815D01*
X40169336Y-28865187D01*
X40169331Y-28865185D01*
X40116498Y-28847678D01*
X40002797Y-28810001D01*
X40002795Y-28810000D01*
X39900010Y-28799500D01*
X39099998Y-28799500D01*
X39099980Y-28799501D01*
X38997203Y-28810000D01*
X38997200Y-28810001D01*
X38830668Y-28865185D01*
X38830663Y-28865187D01*
X38681342Y-28957289D01*
X38557289Y-29081342D01*
X38465187Y-29230663D01*
X38465185Y-29230668D01*
X38437405Y-29314504D01*
X38397632Y-29371949D01*
X38333116Y-29398772D01*
X38319699Y-29399500D01*
X36611465Y-29399500D01*
X36544426Y-29379815D01*
X36498671Y-29327011D01*
X36487889Y-29285741D01*
X36485108Y-29252179D01*
X36441925Y-29081654D01*
X36424063Y-29011118D01*
X36324173Y-28783393D01*
X36188166Y-28575217D01*
X36090663Y-28469301D01*
X36019744Y-28392262D01*
X35823509Y-28239526D01*
X35823507Y-28239525D01*
X35823506Y-28239524D01*
X35604811Y-28121172D01*
X35604802Y-28121169D01*
X35369616Y-28040429D01*
X35124335Y-27999500D01*
X34875665Y-27999500D01*
X34630383Y-28040429D01*
X34395197Y-28121169D01*
X34395188Y-28121172D01*
X34176493Y-28239524D01*
X33980257Y-28392261D01*
X33811833Y-28575217D01*
X33675827Y-28783391D01*
X33657440Y-28825311D01*
X33612483Y-28878796D01*
X33545747Y-28899486D01*
X33543884Y-28899500D01*
X29956116Y-28899500D01*
X29889077Y-28879815D01*
X29843322Y-28827011D01*
X29842560Y-28825311D01*
X29824172Y-28783391D01*
X29688166Y-28575217D01*
X29590663Y-28469301D01*
X29519744Y-28392262D01*
X29323509Y-28239526D01*
X29323507Y-28239525D01*
X29323506Y-28239524D01*
X29104811Y-28121172D01*
X29104802Y-28121169D01*
X28869616Y-28040429D01*
X28624335Y-27999500D01*
X28375665Y-27999500D01*
X28130383Y-28040429D01*
X27895197Y-28121169D01*
X27895188Y-28121172D01*
X27676493Y-28239524D01*
X27480257Y-28392261D01*
X27311833Y-28575217D01*
X27175826Y-28783393D01*
X27075936Y-29011118D01*
X27014892Y-29252175D01*
X27014890Y-29252187D01*
X26994357Y-29499994D01*
X24600500Y-29499994D01*
X24600500Y-27399986D01*
X44800001Y-27399986D01*
X44810494Y-27502697D01*
X44865641Y-27669119D01*
X44865643Y-27669124D01*
X44957684Y-27818345D01*
X45081654Y-27942315D01*
X45230875Y-28034356D01*
X45230880Y-28034358D01*
X45397302Y-28089505D01*
X45397309Y-28089506D01*
X45500019Y-28099999D01*
X45749999Y-28099999D01*
X46250000Y-28099999D01*
X46499972Y-28099999D01*
X46499986Y-28099998D01*
X46602697Y-28089505D01*
X46769119Y-28034358D01*
X46769124Y-28034356D01*
X46918345Y-27942315D01*
X46928162Y-27932498D01*
X56527647Y-27932498D01*
X56527647Y-27932501D01*
X56547036Y-28203590D01*
X56547037Y-28203597D01*
X56604805Y-28469154D01*
X56699785Y-28723806D01*
X56699787Y-28723810D01*
X56830032Y-28962335D01*
X56830037Y-28962343D01*
X56923821Y-29087623D01*
X56923822Y-29087624D01*
X57716653Y-28294793D01*
X57723549Y-28311442D01*
X57811099Y-28442470D01*
X57922530Y-28553901D01*
X58053558Y-28641451D01*
X58070205Y-28648346D01*
X57277374Y-29441176D01*
X57402663Y-29534966D01*
X57402664Y-29534967D01*
X57641189Y-29665212D01*
X57641193Y-29665214D01*
X57895845Y-29760194D01*
X58161402Y-29817962D01*
X58161409Y-29817963D01*
X58432499Y-29837353D01*
X58432501Y-29837353D01*
X58703590Y-29817963D01*
X58703597Y-29817962D01*
X58969154Y-29760194D01*
X59223806Y-29665214D01*
X59223810Y-29665212D01*
X59462344Y-29534962D01*
X59587623Y-29441177D01*
X59587624Y-29441176D01*
X58794794Y-28648346D01*
X58811442Y-28641451D01*
X58942470Y-28553901D01*
X59053901Y-28442470D01*
X59141451Y-28311442D01*
X59148346Y-28294794D01*
X59941176Y-29087624D01*
X59941177Y-29087623D01*
X60034962Y-28962344D01*
X60165212Y-28723810D01*
X60165214Y-28723806D01*
X60260194Y-28469154D01*
X60317962Y-28203597D01*
X60317963Y-28203590D01*
X60337353Y-27932501D01*
X60337353Y-27932498D01*
X60317963Y-27661409D01*
X60317962Y-27661402D01*
X60260194Y-27395845D01*
X60165214Y-27141193D01*
X60165212Y-27141189D01*
X60034967Y-26902664D01*
X60034966Y-26902663D01*
X59941176Y-26777374D01*
X59148346Y-27570204D01*
X59141451Y-27553558D01*
X59053901Y-27422530D01*
X58942470Y-27311099D01*
X58811442Y-27223549D01*
X58794794Y-27216653D01*
X59587624Y-26423822D01*
X59587623Y-26423821D01*
X59462343Y-26330037D01*
X59462335Y-26330032D01*
X59223810Y-26199787D01*
X59223806Y-26199785D01*
X58969154Y-26104805D01*
X58703597Y-26047037D01*
X58703590Y-26047036D01*
X58432501Y-26027647D01*
X58432499Y-26027647D01*
X58161409Y-26047036D01*
X58161402Y-26047037D01*
X57895845Y-26104805D01*
X57641193Y-26199785D01*
X57641189Y-26199787D01*
X57402664Y-26330032D01*
X57402656Y-26330037D01*
X57277375Y-26423821D01*
X57277374Y-26423822D01*
X58070205Y-27216653D01*
X58053558Y-27223549D01*
X57922530Y-27311099D01*
X57811099Y-27422530D01*
X57723549Y-27553558D01*
X57716653Y-27570205D01*
X56923822Y-26777374D01*
X56923821Y-26777375D01*
X56830037Y-26902656D01*
X56830032Y-26902664D01*
X56699787Y-27141189D01*
X56699785Y-27141193D01*
X56604805Y-27395845D01*
X56547037Y-27661402D01*
X56547036Y-27661409D01*
X56527647Y-27932498D01*
X46928162Y-27932498D01*
X47042315Y-27818345D01*
X47134356Y-27669124D01*
X47134358Y-27669119D01*
X47189505Y-27502697D01*
X47189506Y-27502690D01*
X47199999Y-27399986D01*
X47200000Y-27399973D01*
X47200000Y-27250000D01*
X46250000Y-27250000D01*
X46250000Y-28099999D01*
X45749999Y-28099999D01*
X45750000Y-28099998D01*
X45750000Y-27250000D01*
X44800001Y-27250000D01*
X44800001Y-27399986D01*
X24600500Y-27399986D01*
X24600500Y-24999994D01*
X26994357Y-24999994D01*
X26994357Y-25000005D01*
X27014890Y-25247812D01*
X27014892Y-25247824D01*
X27075936Y-25488881D01*
X27175826Y-25716606D01*
X27311833Y-25924782D01*
X27311836Y-25924785D01*
X27480256Y-26107738D01*
X27676491Y-26260474D01*
X27895190Y-26378828D01*
X28130386Y-26459571D01*
X28375665Y-26500500D01*
X28624335Y-26500500D01*
X28869614Y-26459571D01*
X29104810Y-26378828D01*
X29323509Y-26260474D01*
X29519744Y-26107738D01*
X29688164Y-25924785D01*
X29824173Y-25716607D01*
X29842560Y-25674689D01*
X29887517Y-25621204D01*
X29954253Y-25600514D01*
X29956116Y-25600500D01*
X33543884Y-25600500D01*
X33610923Y-25620185D01*
X33656678Y-25672989D01*
X33657440Y-25674689D01*
X33675827Y-25716608D01*
X33811833Y-25924782D01*
X33811836Y-25924785D01*
X33980256Y-26107738D01*
X34176491Y-26260474D01*
X34395190Y-26378828D01*
X34630386Y-26459571D01*
X34875665Y-26500500D01*
X35124335Y-26500500D01*
X35369614Y-26459571D01*
X35604810Y-26378828D01*
X35823509Y-26260474D01*
X36019744Y-26107738D01*
X36188164Y-25924785D01*
X36324173Y-25716607D01*
X36342560Y-25674689D01*
X36387517Y-25621204D01*
X36454253Y-25600514D01*
X36456116Y-25600500D01*
X38319699Y-25600500D01*
X38386738Y-25620185D01*
X38432493Y-25672989D01*
X38437403Y-25685492D01*
X38465186Y-25769334D01*
X38557288Y-25918656D01*
X38681344Y-26042712D01*
X38830666Y-26134814D01*
X38997203Y-26189999D01*
X39099991Y-26200500D01*
X39850008Y-26200499D01*
X39850016Y-26200498D01*
X39850019Y-26200498D01*
X39906302Y-26194748D01*
X39952797Y-26189999D01*
X40119334Y-26134814D01*
X40268656Y-26042712D01*
X40392712Y-25918656D01*
X40394461Y-25915819D01*
X40396169Y-25914283D01*
X40397193Y-25912989D01*
X40397414Y-25913163D01*
X40446406Y-25869096D01*
X40515368Y-25857872D01*
X40579451Y-25885713D01*
X40605537Y-25915817D01*
X40607288Y-25918656D01*
X40731344Y-26042712D01*
X40880666Y-26134814D01*
X41047203Y-26189999D01*
X41149991Y-26200500D01*
X41900008Y-26200499D01*
X41900016Y-26200498D01*
X41900019Y-26200498D01*
X41956302Y-26194748D01*
X42002797Y-26189999D01*
X42169334Y-26134814D01*
X42318656Y-26042712D01*
X42442712Y-25918656D01*
X42534814Y-25769334D01*
X42562595Y-25685495D01*
X42602368Y-25628051D01*
X42666884Y-25601228D01*
X42680301Y-25600500D01*
X44754092Y-25600500D01*
X44821131Y-25620185D01*
X44859636Y-25664271D01*
X44861395Y-25663187D01*
X44865185Y-25669331D01*
X44865186Y-25669334D01*
X44957287Y-25818654D01*
X44957289Y-25818657D01*
X45051304Y-25912672D01*
X45084789Y-25973995D01*
X45079805Y-26043687D01*
X45051305Y-26088034D01*
X44957682Y-26181657D01*
X44865643Y-26330875D01*
X44865641Y-26330880D01*
X44810494Y-26497302D01*
X44810493Y-26497309D01*
X44800000Y-26600013D01*
X44800000Y-26750000D01*
X47199999Y-26750000D01*
X47199999Y-26600028D01*
X47199998Y-26600013D01*
X47189505Y-26497302D01*
X47134358Y-26330880D01*
X47134356Y-26330875D01*
X47042315Y-26181654D01*
X46948695Y-26088034D01*
X46915210Y-26026711D01*
X46920194Y-25957019D01*
X46948691Y-25912676D01*
X47042712Y-25818656D01*
X47134814Y-25669334D01*
X47189999Y-25502797D01*
X47200500Y-25400009D01*
X47200499Y-24599992D01*
X47189999Y-24497203D01*
X47134814Y-24330666D01*
X47042712Y-24181344D01*
X46918656Y-24057288D01*
X46769334Y-23965186D01*
X46602797Y-23910001D01*
X46602795Y-23910000D01*
X46500010Y-23899500D01*
X45499998Y-23899500D01*
X45499980Y-23899501D01*
X45397203Y-23910000D01*
X45397200Y-23910001D01*
X45230668Y-23965185D01*
X45230663Y-23965187D01*
X45081342Y-24057289D01*
X44957289Y-24181342D01*
X44957288Y-24181344D01*
X44867441Y-24327011D01*
X44861395Y-24336813D01*
X44859600Y-24335706D01*
X44820313Y-24380337D01*
X44754092Y-24399500D01*
X42680301Y-24399500D01*
X42613262Y-24379815D01*
X42567507Y-24327011D01*
X42562595Y-24314504D01*
X42550000Y-24276494D01*
X42534814Y-24230666D01*
X42442712Y-24081344D01*
X42318656Y-23957288D01*
X42224966Y-23899500D01*
X42169336Y-23865187D01*
X42169331Y-23865185D01*
X42167862Y-23864698D01*
X42002797Y-23810001D01*
X42002795Y-23810000D01*
X41900010Y-23799500D01*
X41149998Y-23799500D01*
X41149980Y-23799501D01*
X41047203Y-23810000D01*
X41047200Y-23810001D01*
X40880668Y-23865185D01*
X40880663Y-23865187D01*
X40731342Y-23957289D01*
X40607285Y-24081346D01*
X40605537Y-24084182D01*
X40603829Y-24085717D01*
X40602807Y-24087011D01*
X40602585Y-24086836D01*
X40553589Y-24130905D01*
X40484626Y-24142126D01*
X40420544Y-24114282D01*
X40394463Y-24084182D01*
X40392714Y-24081346D01*
X40268657Y-23957289D01*
X40268656Y-23957288D01*
X40174966Y-23899500D01*
X40119336Y-23865187D01*
X40119331Y-23865185D01*
X40117862Y-23864698D01*
X39952797Y-23810001D01*
X39952795Y-23810000D01*
X39850010Y-23799500D01*
X39099998Y-23799500D01*
X39099980Y-23799501D01*
X38997203Y-23810000D01*
X38997200Y-23810001D01*
X38830668Y-23865185D01*
X38830663Y-23865187D01*
X38681342Y-23957289D01*
X38557289Y-24081342D01*
X38465187Y-24230663D01*
X38465185Y-24230668D01*
X38437405Y-24314504D01*
X38397632Y-24371949D01*
X38333116Y-24398772D01*
X38319699Y-24399500D01*
X36456116Y-24399500D01*
X36389077Y-24379815D01*
X36343322Y-24327011D01*
X36342560Y-24325311D01*
X36324172Y-24283391D01*
X36188166Y-24075217D01*
X36086874Y-23965185D01*
X36019744Y-23892262D01*
X35823509Y-23739526D01*
X35823507Y-23739525D01*
X35823506Y-23739524D01*
X35604811Y-23621172D01*
X35604802Y-23621169D01*
X35369616Y-23540429D01*
X35124335Y-23499500D01*
X34875665Y-23499500D01*
X34630383Y-23540429D01*
X34395197Y-23621169D01*
X34395188Y-23621172D01*
X34176493Y-23739524D01*
X33980257Y-23892261D01*
X33811833Y-24075217D01*
X33675827Y-24283391D01*
X33657440Y-24325311D01*
X33612483Y-24378796D01*
X33545747Y-24399486D01*
X33543884Y-24399500D01*
X29956116Y-24399500D01*
X29889077Y-24379815D01*
X29843322Y-24327011D01*
X29842560Y-24325311D01*
X29824172Y-24283391D01*
X29688166Y-24075217D01*
X29586874Y-23965185D01*
X29519744Y-23892262D01*
X29323509Y-23739526D01*
X29323507Y-23739525D01*
X29323506Y-23739524D01*
X29104811Y-23621172D01*
X29104802Y-23621169D01*
X28869616Y-23540429D01*
X28624335Y-23499500D01*
X28375665Y-23499500D01*
X28130383Y-23540429D01*
X27895197Y-23621169D01*
X27895188Y-23621172D01*
X27676493Y-23739524D01*
X27480257Y-23892261D01*
X27311833Y-24075217D01*
X27175826Y-24283393D01*
X27075936Y-24511118D01*
X27014892Y-24752175D01*
X27014890Y-24752187D01*
X26994357Y-24999994D01*
X24600500Y-24999994D01*
X24600500Y-21724500D01*
X24620185Y-21657461D01*
X24672989Y-21611706D01*
X24724500Y-21600500D01*
X102775500Y-21600500D01*
X102842539Y-21620185D01*
G37*
%TD.AperFunction*%
%TD*%
M02*
